%
M48
M72
T01C0.0197
T02C0.0276
T03C0.0315
T04C0.0320
T05C0.0400
T06C0.0433
T07C0.0748
%
T01
X3151Y8151
X6151Y11151
X6651Y13151
X6151Y15151
X5151Y16651
X4151Y16151
X2151Y15651
X1651Y16651
X3151Y13651
X3651Y12151
X3151Y11651
X9651Y15151
X10151Y14151
X10651Y14651
X10151Y17651
X6151Y19151
X14651Y13651
X15651Y11151
X14651Y9651
X14151Y8151
X12651Y6651
X13651Y6151
X14151Y6151
X16151Y5151
X17651Y6651
X17651Y7151
X16151Y7151
X17151Y9151
X17651Y9651
X18151Y12151
X19151Y13151
X18151Y4651
X13151Y3651
X12651Y2651
X9651Y7651
T02
X4651Y4651
X4651Y5651
X13151Y10151
X14151Y10151
T03
X14981Y3751
X15291Y3131
X15981Y3131
X15651Y3751
X16351Y3751
T04
X7651Y5151
X7651Y6151
X7651Y7151
X7651Y8151
X7651Y9151
X7651Y10151
X7651Y11151
X7651Y12151
X7651Y13151
X7651Y14151
X7651Y15151
X7651Y16151
X7651Y17151
X7651Y18151
X7151Y19151
X5651Y17651
X4651Y15151
X5651Y14651
X4651Y12151
X9151Y19151
X10651Y19151
X11651Y18151
X11651Y17151
X11651Y16151
X11651Y15151
X11651Y14151
X11651Y13151
X11651Y12151
X11651Y11151
X11651Y10151
X11651Y9151
X11651Y8151
X11651Y7151
X11651Y6151
X11651Y5151
X11651Y3651
X10651Y3651
X13651Y8651
X16651Y8651
X16651Y11651
X17651Y11651
X17651Y14151
X16651Y14151
X15651Y14151
X14151Y15151
X14151Y16151
X12651Y17151
X12651Y19151
X15651Y17151
X16651Y16651
X17651Y16651
X12651Y14151
X16651Y5651
X17651Y5651
T05
X651Y1151
X651Y2151
X651Y3151
X651Y4151
X651Y6151
X651Y7151
X651Y8151
X651Y9151
X651Y11151
X651Y12151
X651Y13151
X651Y14151
X1151Y19651
X2151Y19651
X3151Y19651
X4151Y19651
X5151Y19651
X19151Y9151
X19151Y8151
X19151Y7151
X19151Y6151
X19151Y4151
X19151Y3151
X19151Y2151
X19151Y1151
X11651Y1151
X10651Y1151
X9651Y1151
T06
X4151Y8151
X4151Y9151
X4151Y10151
T07
X14214Y1651
X17088Y1651
M30
