G75*
G70*
%OFA0B0*%
%FSLAX24Y24*%
%IPPOS*%
%LPD*%
%AMOC8*
5,1,8,0,0,1.08239X$1,22.5*
%
%ADD10C,0.0100*%
%ADD11C,0.0520*%
%ADD12OC8,0.0520*%
%ADD13R,0.0650X0.0650*%
%ADD14R,0.0650X0.0650*%
%ADD15C,0.0650*%
%ADD16C,0.0600*%
%ADD17C,0.0515*%
%ADD18C,0.1122*%
%ADD19R,0.0740X0.0740*%
%ADD20C,0.0740*%
%ADD21C,0.0357*%
%ADD22C,0.0160*%
%ADD23C,0.0396*%
D10*
X000151Y000151D02*
X000151Y020151D01*
X020151Y020151D01*
X020151Y000151D01*
X000151Y000151D01*
X000651Y001151D02*
X003151Y001151D01*
X003651Y001651D01*
X003651Y004651D01*
X004651Y005651D01*
X004151Y006651D02*
X006651Y006651D01*
X007151Y007151D01*
X007651Y007151D01*
X005651Y007651D02*
X005651Y009651D01*
X006651Y010651D01*
X006651Y011651D01*
X007151Y012151D01*
X007651Y012151D01*
X006651Y013151D02*
X006651Y016151D01*
X007651Y017151D01*
X006151Y018651D02*
X006151Y015151D01*
X006151Y011151D01*
X004151Y012651D02*
X004151Y016151D01*
X005151Y016651D02*
X005151Y019651D01*
X008151Y019651D01*
X008651Y019151D01*
X008651Y014651D01*
X008151Y014151D01*
X007651Y014151D01*
X009651Y015151D02*
X009651Y007651D01*
X011651Y005151D02*
X011651Y003651D01*
X011651Y001151D01*
X012651Y002651D02*
X012651Y006651D01*
X012651Y013151D01*
X012651Y014151D02*
X013651Y014151D01*
X014651Y014151D01*
X015651Y013151D01*
X019151Y013151D01*
X019151Y009151D01*
X017651Y009651D02*
X017651Y007151D01*
X017651Y006651D02*
X017651Y005651D01*
X017151Y005151D02*
X018151Y004151D01*
X018151Y003651D01*
X018651Y003151D01*
X019151Y003151D01*
X019151Y004151D02*
X019151Y005151D01*
X018151Y004651D02*
X018151Y012151D01*
X016651Y011651D02*
X016651Y008651D01*
X017151Y009151D02*
X017151Y005151D01*
X016151Y005151D02*
X016151Y007151D01*
X014151Y008151D02*
X014151Y006151D01*
X013651Y006151D02*
X013651Y008651D01*
X014651Y009651D02*
X014651Y013651D01*
X012651Y014151D02*
X012651Y015651D01*
X012151Y016151D01*
X011651Y016151D01*
X012651Y017151D02*
X013651Y017151D01*
X014151Y016651D01*
X014151Y016151D01*
X012651Y017151D02*
X012651Y017651D01*
X012151Y018151D01*
X011651Y018151D01*
X011151Y018151D02*
X010651Y017651D01*
X010651Y014651D01*
X010651Y013651D01*
X011151Y013151D01*
X010151Y014151D02*
X010151Y017651D01*
X010151Y018651D01*
X009651Y019151D01*
X009151Y019151D01*
X015651Y017151D02*
X016151Y016651D01*
X016651Y016651D01*
X015651Y011151D02*
X015651Y004251D01*
X013651Y003151D02*
X017651Y003151D01*
X018151Y002651D01*
X018151Y001651D01*
X018651Y001151D01*
X019151Y001151D01*
X013651Y003151D02*
X013151Y003651D01*
X005651Y007651D02*
X005151Y007151D01*
X000651Y007151D01*
X001651Y009151D02*
X001651Y016651D01*
X000651Y014151D02*
X000651Y019151D01*
X001151Y019651D01*
X004151Y012651D02*
X003651Y012151D01*
X003151Y011651D02*
X003151Y008151D01*
X004151Y006651D02*
X001651Y004151D01*
X000651Y004151D01*
D11*
X007391Y005151D02*
X007911Y005151D01*
X007911Y006151D02*
X007391Y006151D01*
X007391Y007151D02*
X007911Y007151D01*
X007911Y008151D02*
X007391Y008151D01*
X007391Y009151D02*
X007911Y009151D01*
X007911Y010151D02*
X007391Y010151D01*
X007391Y011151D02*
X007911Y011151D01*
X007911Y012151D02*
X007391Y012151D01*
X007391Y013151D02*
X007911Y013151D01*
X007911Y014151D02*
X007391Y014151D01*
X007391Y015151D02*
X007911Y015151D01*
X007911Y016151D02*
X007391Y016151D01*
X007391Y017151D02*
X007911Y017151D01*
X007911Y018151D02*
X007391Y018151D01*
X011391Y018151D02*
X011911Y018151D01*
X011911Y017151D02*
X011391Y017151D01*
X011391Y016151D02*
X011911Y016151D01*
X011911Y015151D02*
X011391Y015151D01*
X011391Y014151D02*
X011911Y014151D01*
X011911Y013151D02*
X011391Y013151D01*
X011391Y012151D02*
X011911Y012151D01*
X011911Y011151D02*
X011391Y011151D01*
X011391Y010151D02*
X011911Y010151D01*
X011911Y009151D02*
X011391Y009151D01*
X011391Y008151D02*
X011911Y008151D01*
X011911Y007151D02*
X011391Y007151D01*
X011391Y006151D02*
X011911Y006151D01*
X011911Y005151D02*
X011391Y005151D01*
D12*
X011651Y003651D03*
X010651Y003651D03*
X013651Y008651D03*
X016651Y008651D03*
X016651Y011651D03*
X017651Y011651D03*
X017651Y014151D03*
X016651Y014151D03*
X015651Y014151D03*
X014151Y015151D03*
X014151Y016151D03*
X012651Y017151D03*
X012651Y019151D03*
X010651Y019151D03*
X009151Y019151D03*
X007151Y019151D03*
X005651Y017651D03*
X004651Y015151D03*
X005651Y014651D03*
X004651Y012151D03*
X012651Y014151D03*
X015651Y017151D03*
X016651Y016651D03*
X017651Y016651D03*
X017651Y005651D03*
X016651Y005651D03*
D13*
X004151Y008151D03*
X004151Y009151D03*
X004151Y010151D03*
D14*
X004651Y005651D03*
X013151Y010151D03*
D15*
X014151Y010151D03*
X004651Y004651D03*
D16*
X009651Y001451D02*
X009651Y000851D01*
X010651Y000851D02*
X010651Y001451D01*
X011651Y001451D02*
X011651Y000851D01*
D17*
X014981Y004251D03*
X015291Y003631D03*
X015981Y003631D03*
X015651Y004251D03*
X016351Y004251D03*
D18*
X017088Y002151D03*
X014214Y002151D03*
D19*
X019151Y004151D03*
X019151Y009151D03*
X001151Y019651D03*
X000651Y014151D03*
X000651Y009151D03*
X000651Y004151D03*
D20*
X000651Y003151D03*
X000651Y002151D03*
X000651Y001151D03*
X000651Y006151D03*
X000651Y007151D03*
X000651Y008151D03*
X000651Y011151D03*
X000651Y012151D03*
X000651Y013151D03*
X002151Y019651D03*
X003151Y019651D03*
X004151Y019651D03*
X005151Y019651D03*
X019151Y008151D03*
X019151Y007151D03*
X019151Y006151D03*
X019151Y003151D03*
X019151Y002151D03*
X019151Y001151D03*
D21*
X018151Y004651D03*
X019151Y005151D03*
X017651Y007151D03*
X016151Y007151D03*
X016151Y005151D03*
X014151Y006151D03*
X013651Y006151D03*
X012651Y006651D03*
X014151Y008151D03*
X014651Y009651D03*
X015651Y011151D03*
X017651Y009651D03*
X017151Y009151D03*
X018151Y012151D03*
X019151Y013151D03*
X014651Y013651D03*
X012651Y013151D03*
X010651Y014651D03*
X010151Y014151D03*
X009651Y015151D03*
X010151Y017651D03*
X006151Y018651D03*
X005151Y016651D03*
X004151Y016151D03*
X002151Y015651D03*
X001651Y016651D03*
X003151Y013651D03*
X003651Y012151D03*
X003151Y011651D03*
X001651Y009151D03*
X003151Y008151D03*
X006151Y011151D03*
X006651Y013151D03*
X006151Y015151D03*
X009651Y007651D03*
X013151Y003651D03*
X012651Y002651D03*
D22*
X011651Y013151D02*
X011151Y013151D01*
X011151Y018151D02*
X011651Y018151D01*
X002151Y019651D02*
X002151Y015651D01*
D23*
X017651Y006651D03*
M02*
