G75*
G70*
%OFA0B0*%
%FSLAX24Y24*%
%IPPOS*%
%LPD*%
%AMOC8*
5,1,8,0,0,1.08239X$1,22.5*
%
%ADD10C,0.0100*%
%ADD11C,0.0520*%
%ADD12OC8,0.0520*%
%ADD13R,0.0650X0.0650*%
%ADD14R,0.0650X0.0650*%
%ADD15C,0.0650*%
%ADD16C,0.0600*%
%ADD17C,0.0515*%
%ADD18C,0.1122*%
%ADD19R,0.0740X0.0740*%
%ADD20C,0.0740*%
%ADD21C,0.0357*%
%ADD22C,0.0160*%
D10*
X000151Y000151D02*
X000151Y020151D01*
X020151Y020151D01*
X020151Y000151D01*
X000151Y000151D01*
X000855Y000651D02*
X000957Y000693D01*
X001109Y000845D01*
X001191Y001044D01*
X001191Y001259D01*
X001109Y001457D01*
X000957Y001609D01*
X000829Y001662D01*
X000851Y001669D01*
X000924Y001706D01*
X000990Y001755D01*
X001048Y001812D01*
X001096Y001879D01*
X001133Y001952D01*
X001158Y002029D01*
X001170Y002101D01*
X000701Y002101D01*
X000701Y002201D01*
X001170Y002201D01*
X001158Y002273D01*
X001133Y002351D01*
X001096Y002424D01*
X001048Y002490D01*
X000990Y002548D01*
X000924Y002596D01*
X000851Y002633D01*
X000829Y002640D01*
X000957Y002693D01*
X001109Y002845D01*
X001144Y002931D01*
X007060Y002931D01*
X007242Y002931D01*
X007742Y003431D01*
X007871Y003560D01*
X007871Y004721D01*
X007997Y004721D01*
X008155Y004787D01*
X008276Y004908D01*
X008341Y005066D01*
X008341Y005237D01*
X008276Y005395D01*
X008155Y005516D01*
X007997Y005581D01*
X007306Y005581D01*
X007148Y005516D01*
X007027Y005395D01*
X006961Y005237D01*
X006961Y005066D01*
X007027Y004908D01*
X007148Y004787D01*
X007306Y004721D01*
X007431Y004721D01*
X007431Y003742D01*
X007060Y003371D01*
X001144Y003371D01*
X001109Y003457D01*
X000957Y003609D01*
X000952Y003611D01*
X001092Y003611D01*
X001191Y003711D01*
X001191Y004592D01*
X001092Y004691D01*
X000651Y004691D01*
X000651Y005611D01*
X000759Y005611D01*
X000957Y005693D01*
X001109Y005845D01*
X001144Y005931D01*
X002560Y005931D01*
X002742Y005931D01*
X003742Y006931D01*
X005060Y006931D01*
X005242Y006931D01*
X006242Y007931D01*
X007017Y007931D01*
X007027Y007908D01*
X007148Y007787D01*
X007306Y007721D01*
X007997Y007721D01*
X008155Y007787D01*
X008276Y007908D01*
X008341Y008066D01*
X008341Y008237D01*
X008276Y008395D01*
X008155Y008516D01*
X007997Y008581D01*
X007306Y008581D01*
X007148Y008516D01*
X007027Y008395D01*
X007017Y008371D01*
X006060Y008371D01*
X005931Y008242D01*
X005060Y007371D01*
X003560Y007371D01*
X003431Y007242D01*
X002560Y006371D01*
X001144Y006371D01*
X001109Y006457D01*
X000957Y006609D01*
X000855Y006651D01*
X000957Y006693D01*
X001109Y006845D01*
X001191Y007044D01*
X001191Y007259D01*
X001109Y007457D01*
X000957Y007609D01*
X000855Y007651D01*
X000957Y007693D01*
X001109Y007845D01*
X001144Y007931D01*
X002878Y007931D01*
X002954Y007856D01*
X003082Y007803D01*
X003220Y007803D01*
X003349Y007856D01*
X003447Y007954D01*
X003500Y008082D01*
X003500Y008220D01*
X003447Y008349D01*
X003349Y008447D01*
X003220Y008500D01*
X003082Y008500D01*
X002954Y008447D01*
X002878Y008371D01*
X001144Y008371D01*
X001109Y008457D01*
X000957Y008609D01*
X000952Y008611D01*
X001092Y008611D01*
X001191Y008711D01*
X001191Y009592D01*
X001092Y009691D01*
X000651Y009691D01*
X000651Y010611D01*
X000759Y010611D01*
X000957Y010693D01*
X001109Y010845D01*
X001132Y010901D01*
X005908Y010901D01*
X005954Y010856D01*
X006082Y010803D01*
X006220Y010803D01*
X006349Y010856D01*
X006447Y010954D01*
X006500Y011082D01*
X006500Y011220D01*
X006447Y011349D01*
X006364Y011431D01*
X007091Y011431D01*
X007078Y011418D01*
X007041Y011366D01*
X007011Y011309D01*
X006991Y011247D01*
X006981Y011183D01*
X006981Y011181D01*
X007621Y011181D01*
X007621Y011121D01*
X007681Y011121D01*
X007681Y010741D01*
X007943Y010741D01*
X008007Y010751D01*
X008069Y010771D01*
X008126Y010801D01*
X008178Y010838D01*
X008224Y010884D01*
X008262Y010936D01*
X008291Y010994D01*
X008311Y011055D01*
X008321Y011119D01*
X008321Y011121D01*
X007681Y011121D01*
X007681Y011181D01*
X008321Y011181D01*
X008321Y011183D01*
X008311Y011247D01*
X008291Y011309D01*
X008262Y011366D01*
X008224Y011418D01*
X008211Y011431D01*
X008560Y011431D01*
X008742Y011431D01*
X009371Y012060D01*
X009371Y012242D01*
X009371Y012742D01*
X009242Y012871D01*
X008742Y013371D01*
X008560Y013371D01*
X008285Y013371D01*
X008276Y013395D01*
X008155Y013516D01*
X007997Y013581D01*
X007306Y013581D01*
X007148Y013516D01*
X007027Y013395D01*
X006977Y013275D01*
X006947Y013349D01*
X006849Y013447D01*
X006720Y013500D01*
X006582Y013500D01*
X006454Y013447D01*
X006378Y013371D01*
X003364Y013371D01*
X003447Y013454D01*
X003447Y013455D02*
X006473Y013455D01*
X006651Y013151D02*
X000651Y013151D01*
X000651Y012151D02*
X003651Y012151D01*
X003151Y011651D02*
X008651Y011651D01*
X009151Y012151D01*
X009151Y012651D01*
X008651Y013151D01*
X007651Y013151D01*
X007238Y013553D02*
X003488Y013553D01*
X003500Y013582D02*
X003500Y013720D01*
X003447Y013849D01*
X003349Y013947D01*
X003220Y014000D01*
X003114Y014000D01*
X002742Y014371D01*
X002560Y014371D01*
X001191Y014371D01*
X001191Y014592D01*
X001092Y014691D01*
X000651Y014691D01*
X000651Y019171D01*
X000711Y019111D01*
X000931Y019111D01*
X000931Y018560D01*
X001060Y018431D01*
X001560Y017931D01*
X001742Y017931D01*
X005323Y017931D01*
X005221Y017829D01*
X005221Y017473D01*
X005473Y017221D01*
X005829Y017221D01*
X006039Y017431D01*
X007063Y017431D01*
X007027Y017395D01*
X006961Y017237D01*
X006961Y017066D01*
X007027Y016908D01*
X007148Y016787D01*
X007306Y016721D01*
X007997Y016721D01*
X008155Y016787D01*
X008276Y016908D01*
X008341Y017066D01*
X008341Y017237D01*
X008276Y017395D01*
X008239Y017431D01*
X009878Y017431D01*
X009954Y017356D01*
X010082Y017303D01*
X010220Y017303D01*
X010349Y017356D01*
X010447Y017454D01*
X010500Y017582D01*
X010500Y017720D01*
X010447Y017849D01*
X010349Y017947D01*
X010284Y017973D01*
X010371Y018060D01*
X010871Y018560D01*
X010871Y018742D01*
X010871Y018763D01*
X011081Y018973D01*
X012250Y018973D01*
X012241Y018981D02*
X012481Y018741D01*
X012621Y018741D01*
X012621Y019121D01*
X012681Y019121D01*
X012681Y018741D01*
X012821Y018741D01*
X013061Y018981D01*
X013061Y019121D01*
X012681Y019121D01*
X012681Y019181D01*
X013061Y019181D01*
X013061Y019321D01*
X012821Y019561D01*
X012681Y019561D01*
X012681Y019181D01*
X012621Y019181D01*
X012621Y019121D01*
X012241Y019121D01*
X012241Y018981D01*
X012241Y019071D02*
X011081Y019071D01*
X011081Y018973D02*
X011081Y019329D01*
X010829Y019581D01*
X010473Y019581D01*
X010221Y019329D01*
X010221Y018973D01*
X010431Y018763D01*
X010431Y018742D01*
X010060Y018371D01*
X008285Y018371D01*
X008276Y018395D01*
X008155Y018516D01*
X007997Y018581D01*
X007306Y018581D01*
X007148Y018516D01*
X007027Y018395D01*
X007017Y018371D01*
X001742Y018371D01*
X001371Y018742D01*
X001371Y019111D01*
X001592Y019111D01*
X001691Y019211D01*
X001691Y019351D01*
X001693Y019345D01*
X001845Y019193D01*
X002044Y019111D01*
X002259Y019111D01*
X002457Y019193D01*
X002609Y019345D01*
X002662Y019474D01*
X002669Y019452D01*
X002706Y019379D01*
X002755Y019312D01*
X002812Y019255D01*
X002879Y019206D01*
X002952Y019169D01*
X003029Y019144D01*
X003101Y019133D01*
X003101Y019601D01*
X003201Y019601D01*
X003201Y019133D01*
X003273Y019144D01*
X003351Y019169D01*
X003424Y019206D01*
X003490Y019255D01*
X003548Y019312D01*
X003596Y019379D01*
X003633Y019452D01*
X003640Y019474D01*
X003693Y019345D01*
X003845Y019193D01*
X003931Y019158D01*
X003931Y019060D01*
X004060Y018931D01*
X004431Y018560D01*
X004560Y018431D01*
X005742Y018431D01*
X005871Y018560D01*
X006114Y018803D01*
X006220Y018803D01*
X006349Y018856D01*
X006447Y018954D01*
X006500Y019082D01*
X006500Y019220D01*
X006447Y019349D01*
X006349Y019447D01*
X006220Y019500D01*
X006082Y019500D01*
X005954Y019447D01*
X005856Y019349D01*
X005803Y019220D01*
X005803Y019114D01*
X005560Y018871D01*
X004742Y018871D01*
X004431Y019183D01*
X004457Y019193D01*
X004609Y019345D01*
X004651Y019447D01*
X004693Y019345D01*
X004845Y019193D01*
X005044Y019111D01*
X005259Y019111D01*
X005457Y019193D01*
X005609Y019345D01*
X005691Y019544D01*
X005691Y019651D01*
X019651Y019651D01*
X019651Y009631D01*
X019592Y009691D01*
X018711Y009691D01*
X018611Y009592D01*
X018611Y008711D01*
X018711Y008611D01*
X018851Y008611D01*
X018845Y008609D01*
X018693Y008457D01*
X018658Y008371D01*
X016979Y008371D01*
X017081Y008473D01*
X017081Y008803D01*
X017082Y008803D01*
X017220Y008803D01*
X017349Y008856D01*
X017447Y008954D01*
X017500Y009082D01*
X017500Y009220D01*
X017447Y009349D01*
X017364Y009431D01*
X017378Y009431D01*
X017454Y009356D01*
X017582Y009303D01*
X017720Y009303D01*
X017849Y009356D01*
X017947Y009454D01*
X018000Y009582D01*
X018000Y009720D01*
X017947Y009849D01*
X017849Y009947D01*
X017720Y010000D01*
X017582Y010000D01*
X017454Y009947D01*
X017378Y009871D01*
X014924Y009871D01*
X014849Y009947D01*
X014720Y010000D01*
X014601Y010000D01*
X014614Y010040D01*
X014626Y010114D01*
X014626Y010132D01*
X014170Y010132D01*
X014170Y009676D01*
X014189Y009676D01*
X014262Y009688D01*
X014303Y009701D01*
X014303Y009582D01*
X014356Y009454D01*
X014438Y009371D01*
X014060Y009371D01*
X013931Y009242D01*
X013770Y009081D01*
X013473Y009081D01*
X013221Y008829D01*
X013221Y008473D01*
X013323Y008371D01*
X012285Y008371D01*
X012276Y008395D01*
X012155Y008516D01*
X011997Y008581D01*
X011306Y008581D01*
X011148Y008516D01*
X011027Y008395D01*
X010961Y008237D01*
X010961Y008066D01*
X011027Y007908D01*
X011063Y007871D01*
X009924Y007871D01*
X009849Y007947D01*
X009720Y008000D01*
X009582Y008000D01*
X009454Y007947D01*
X009356Y007849D01*
X009303Y007720D01*
X009303Y007582D01*
X009356Y007454D01*
X009454Y007356D01*
X009582Y007303D01*
X009720Y007303D01*
X009849Y007356D01*
X009924Y007431D01*
X011063Y007431D01*
X011027Y007395D01*
X010961Y007237D01*
X010961Y007066D01*
X011027Y006908D01*
X011148Y006787D01*
X011306Y006721D01*
X011997Y006721D01*
X012155Y006787D01*
X012276Y006908D01*
X012285Y006931D01*
X012438Y006931D01*
X012356Y006849D01*
X012303Y006720D01*
X012303Y006582D01*
X012356Y006454D01*
X012438Y006371D01*
X012285Y006371D01*
X012276Y006395D01*
X012155Y006516D01*
X011997Y006581D01*
X011306Y006581D01*
X011148Y006516D01*
X011027Y006395D01*
X010961Y006237D01*
X010961Y006066D01*
X011027Y005908D01*
X011148Y005787D01*
X011306Y005721D01*
X011997Y005721D01*
X012155Y005787D01*
X012276Y005908D01*
X012285Y005931D01*
X013378Y005931D01*
X013454Y005856D01*
X013582Y005803D01*
X013720Y005803D01*
X013849Y005856D01*
X013901Y005908D01*
X013954Y005856D01*
X014082Y005803D01*
X014220Y005803D01*
X014349Y005856D01*
X014424Y005931D01*
X016351Y005931D01*
X016241Y005821D01*
X016241Y005681D01*
X016621Y005681D01*
X016621Y005621D01*
X016241Y005621D01*
X016241Y005491D01*
X016220Y005500D01*
X016082Y005500D01*
X015954Y005447D01*
X015856Y005349D01*
X015803Y005220D01*
X015803Y005082D01*
X015856Y004954D01*
X015954Y004856D01*
X016082Y004803D01*
X016220Y004803D01*
X016349Y004856D01*
X016424Y004931D01*
X017938Y004931D01*
X017856Y004849D01*
X017803Y004720D01*
X017803Y004582D01*
X017856Y004454D01*
X017931Y004378D01*
X017931Y003242D01*
X017560Y002871D01*
X016326Y002871D01*
X016344Y002889D01*
X016409Y003046D01*
X016409Y003216D01*
X016344Y003373D01*
X016322Y003394D01*
X016322Y003722D01*
X016380Y003722D01*
X016380Y003344D01*
X016383Y003344D01*
X016447Y003354D01*
X016508Y003374D01*
X016565Y003403D01*
X017931Y003403D01*
X017931Y003305D02*
X016372Y003305D01*
X016380Y003403D02*
X016322Y003403D01*
X016322Y003502D02*
X016380Y003502D01*
X016380Y003600D02*
X016322Y003600D01*
X016322Y003699D02*
X016380Y003699D01*
X016380Y003722D02*
X016380Y003780D01*
X016322Y003780D01*
X016322Y004159D01*
X016319Y004159D01*
X016256Y004149D01*
X016195Y004129D01*
X016138Y004100D01*
X016086Y004062D01*
X016040Y004017D01*
X016017Y003985D01*
X016014Y003993D01*
X015893Y004114D01*
X015736Y004179D01*
X015566Y004179D01*
X015409Y004114D01*
X015316Y004021D01*
X015223Y004114D01*
X015201Y004123D01*
X015201Y004412D01*
X015072Y004541D01*
X014871Y004742D01*
X014742Y004871D01*
X013742Y004871D01*
X013560Y004871D01*
X013060Y004371D01*
X012931Y004242D01*
X012931Y003924D01*
X012878Y003871D01*
X012039Y003871D01*
X011829Y004081D01*
X011473Y004081D01*
X011221Y003829D01*
X011221Y003473D01*
X011473Y003221D01*
X011829Y003221D01*
X012039Y003431D01*
X012878Y003431D01*
X012954Y003356D01*
X013082Y003303D01*
X013220Y003303D01*
X013349Y003356D01*
X013447Y003454D01*
X013500Y003582D01*
X013500Y003720D01*
X013447Y003849D01*
X013371Y003924D01*
X013371Y004060D01*
X013742Y004431D01*
X014560Y004431D01*
X014761Y004230D01*
X014761Y004123D01*
X014739Y004114D01*
X014619Y003993D01*
X014554Y003836D01*
X014554Y003666D01*
X014619Y003509D01*
X014739Y003389D01*
X014896Y003324D01*
X014908Y003324D01*
X014864Y003216D01*
X014864Y003046D01*
X014929Y002889D01*
X015049Y002769D01*
X015206Y002704D01*
X015288Y002704D01*
X015560Y002431D01*
X015742Y002431D01*
X017560Y002431D01*
X017742Y002431D01*
X018371Y003060D01*
X018371Y003242D01*
X018371Y004378D01*
X018447Y004454D01*
X018500Y004582D01*
X018500Y004720D01*
X018447Y004849D01*
X018364Y004931D01*
X018560Y004931D01*
X018800Y004691D01*
X018711Y004691D01*
X018611Y004592D01*
X018611Y003711D01*
X018711Y003611D01*
X018851Y003611D01*
X018845Y003609D01*
X018693Y003457D01*
X018611Y003259D01*
X018611Y003044D01*
X018693Y002845D01*
X018845Y002693D01*
X018974Y002640D01*
X018952Y002633D01*
X018879Y002596D01*
X018812Y002548D01*
X018755Y002490D01*
X018706Y002424D01*
X018669Y002351D01*
X018644Y002273D01*
X018633Y002201D01*
X019101Y002201D01*
X019101Y002101D01*
X018633Y002101D01*
X018644Y002029D01*
X018669Y001952D01*
X018706Y001879D01*
X018755Y001812D01*
X018812Y001755D01*
X018879Y001706D01*
X018952Y001669D01*
X018974Y001662D01*
X018845Y001609D01*
X018693Y001457D01*
X018611Y001259D01*
X018611Y001044D01*
X018693Y000845D01*
X018845Y000693D01*
X018947Y000651D01*
X012077Y000651D01*
X012121Y000758D01*
X012121Y001545D01*
X012050Y001717D01*
X011917Y001850D01*
X011745Y001921D01*
X011558Y001921D01*
X011385Y001850D01*
X011253Y001717D01*
X011181Y001545D01*
X011181Y000758D01*
X011225Y000651D01*
X011077Y000651D01*
X011121Y000758D01*
X011121Y001545D01*
X011050Y001717D01*
X011039Y001728D01*
X011742Y002431D01*
X012378Y002431D01*
X012454Y002356D01*
X012582Y002303D01*
X012720Y002303D01*
X012849Y002356D01*
X012947Y002454D01*
X013000Y002582D01*
X013000Y002720D01*
X012947Y002849D01*
X012849Y002947D01*
X012720Y003000D01*
X012582Y003000D01*
X012454Y002947D01*
X012378Y002871D01*
X011560Y002871D01*
X011431Y002742D01*
X010651Y001962D01*
X008871Y003742D01*
X008871Y005742D01*
X008742Y005871D01*
X008393Y006220D01*
X008363Y006293D01*
X008293Y006363D01*
X008288Y006365D01*
X008276Y006395D01*
X008155Y006516D01*
X007997Y006581D01*
X007306Y006581D01*
X007148Y006516D01*
X007027Y006395D01*
X007014Y006365D01*
X007010Y006363D01*
X006939Y006293D01*
X006909Y006220D01*
X006560Y005871D01*
X005146Y005871D01*
X005146Y006047D01*
X005047Y006146D01*
X004256Y006146D01*
X004156Y006047D01*
X004156Y005256D01*
X004256Y005156D01*
X005047Y005156D01*
X005146Y005256D01*
X005146Y005431D01*
X006742Y005431D01*
X006871Y005560D01*
X007123Y005812D01*
X007148Y005787D01*
X007306Y005721D01*
X007997Y005721D01*
X008155Y005787D01*
X008180Y005812D01*
X008431Y005560D01*
X008431Y003742D01*
X008431Y003560D01*
X010263Y001728D01*
X010006Y001728D01*
X009994Y001744D02*
X009944Y001794D01*
X009887Y001836D01*
X009824Y001868D01*
X009757Y001890D01*
X009701Y001899D01*
X009701Y001201D01*
X009601Y001201D01*
X009601Y001101D01*
X009201Y001101D01*
X009201Y000816D01*
X009212Y000746D01*
X009234Y000678D01*
X009248Y000651D01*
X000855Y000651D01*
X001006Y000742D02*
X009213Y000742D01*
X009201Y000841D02*
X001105Y000841D01*
X001148Y000940D02*
X009201Y000940D01*
X009201Y001038D02*
X001189Y001038D01*
X001191Y001137D02*
X009601Y001137D01*
X009601Y001201D02*
X009201Y001201D01*
X009201Y001487D01*
X009212Y001557D01*
X009234Y001624D01*
X009266Y001687D01*
X009308Y001744D01*
X009358Y001794D01*
X009415Y001836D01*
X009478Y001868D01*
X009546Y001890D01*
X009601Y001899D01*
X009601Y001201D01*
X009601Y001235D02*
X009701Y001235D01*
X009701Y001201D02*
X010101Y001201D01*
X010101Y001487D01*
X010090Y001557D01*
X010068Y001624D01*
X010036Y001687D01*
X009994Y001744D01*
X009900Y001826D02*
X010165Y001826D01*
X010263Y001728D02*
X010253Y001717D01*
X010181Y001545D01*
X010181Y000758D01*
X010225Y000651D01*
X010054Y000651D01*
X010068Y000678D01*
X010090Y000746D01*
X010101Y000816D01*
X010101Y001101D01*
X009701Y001101D01*
X009701Y001201D01*
X009701Y001137D02*
X010181Y001137D01*
X010181Y001235D02*
X010101Y001235D01*
X010101Y001334D02*
X010181Y001334D01*
X010181Y001432D02*
X010101Y001432D01*
X010094Y001531D02*
X010181Y001531D01*
X010216Y001629D02*
X010065Y001629D01*
X010066Y001925D02*
X001119Y001925D01*
X001156Y002024D02*
X009968Y002024D01*
X009869Y002122D02*
X000701Y002122D01*
X001058Y001826D02*
X009402Y001826D01*
X009296Y001728D02*
X000953Y001728D01*
X000908Y001629D02*
X009237Y001629D01*
X009208Y001531D02*
X001035Y001531D01*
X001119Y001432D02*
X009201Y001432D01*
X009201Y001334D02*
X001160Y001334D01*
X001191Y001235D02*
X009201Y001235D01*
X009601Y001334D02*
X009701Y001334D01*
X009701Y001432D02*
X009601Y001432D01*
X009601Y001531D02*
X009701Y001531D01*
X009701Y001629D02*
X009601Y001629D01*
X009601Y001728D02*
X009701Y001728D01*
X009701Y001826D02*
X009601Y001826D01*
X009771Y002221D02*
X001167Y002221D01*
X001143Y002319D02*
X009672Y002319D01*
X009574Y002418D02*
X001099Y002418D01*
X001021Y002516D02*
X009475Y002516D01*
X009376Y002615D02*
X000887Y002615D01*
X000977Y002713D02*
X009278Y002713D01*
X009179Y002812D02*
X001076Y002812D01*
X001136Y002910D02*
X009081Y002910D01*
X008982Y003009D02*
X007320Y003009D01*
X007419Y003107D02*
X008884Y003107D01*
X008785Y003206D02*
X007517Y003206D01*
X007616Y003305D02*
X008687Y003305D01*
X008588Y003403D02*
X007714Y003403D01*
X007813Y003502D02*
X008490Y003502D01*
X008431Y003600D02*
X007871Y003600D01*
X007871Y003699D02*
X008431Y003699D01*
X008431Y003797D02*
X007871Y003797D01*
X007871Y003896D02*
X008431Y003896D01*
X008431Y003994D02*
X007871Y003994D01*
X007871Y004093D02*
X008431Y004093D01*
X008431Y004191D02*
X007871Y004191D01*
X007871Y004290D02*
X008431Y004290D01*
X008431Y004389D02*
X007871Y004389D01*
X007871Y004487D02*
X008431Y004487D01*
X008431Y004586D02*
X007871Y004586D01*
X007871Y004684D02*
X008431Y004684D01*
X008431Y004783D02*
X008145Y004783D01*
X008249Y004881D02*
X008431Y004881D01*
X008431Y004980D02*
X008306Y004980D01*
X008341Y005078D02*
X008431Y005078D01*
X008431Y005177D02*
X008341Y005177D01*
X008325Y005275D02*
X008431Y005275D01*
X008431Y005374D02*
X008284Y005374D01*
X008198Y005473D02*
X008431Y005473D01*
X008420Y005571D02*
X008021Y005571D01*
X008110Y005768D02*
X008223Y005768D01*
X008322Y005670D02*
X006981Y005670D01*
X007079Y005768D02*
X007192Y005768D01*
X007281Y005571D02*
X006882Y005571D01*
X006784Y005473D02*
X007104Y005473D01*
X007018Y005374D02*
X005146Y005374D01*
X005146Y005275D02*
X006977Y005275D01*
X006961Y005177D02*
X005067Y005177D01*
X004961Y005013D02*
X004900Y005057D01*
X004834Y005091D01*
X004762Y005114D01*
X004689Y005126D01*
X004670Y005126D01*
X004670Y004670D01*
X004632Y004670D01*
X004632Y004632D01*
X004176Y004632D01*
X004176Y004614D01*
X004188Y004540D01*
X004211Y004469D01*
X004245Y004402D01*
X004289Y004342D01*
X004342Y004289D01*
X004402Y004245D01*
X004469Y004211D01*
X004540Y004188D01*
X004614Y004176D01*
X004632Y004176D01*
X004632Y004632D01*
X004670Y004632D01*
X004670Y004176D01*
X004689Y004176D01*
X004762Y004188D01*
X004834Y004211D01*
X004900Y004245D01*
X004961Y004289D01*
X005013Y004342D01*
X005057Y004402D01*
X005091Y004469D01*
X005114Y004540D01*
X005126Y004614D01*
X005126Y004632D01*
X004670Y004632D01*
X004670Y004670D01*
X005126Y004670D01*
X005126Y004689D01*
X005114Y004762D01*
X005091Y004834D01*
X005057Y004900D01*
X005013Y004961D01*
X004961Y005013D01*
X004994Y004980D02*
X006997Y004980D01*
X006961Y005078D02*
X004859Y005078D01*
X004670Y005078D02*
X004632Y005078D01*
X004632Y005126D02*
X004614Y005126D01*
X004540Y005114D01*
X004469Y005091D01*
X004402Y005057D01*
X004342Y005013D01*
X004289Y004961D01*
X004245Y004900D01*
X004211Y004834D01*
X004188Y004762D01*
X004176Y004689D01*
X004176Y004670D01*
X004632Y004670D01*
X004632Y005126D01*
X004632Y004980D02*
X004670Y004980D01*
X004670Y004881D02*
X004632Y004881D01*
X004632Y004783D02*
X004670Y004783D01*
X004670Y004684D02*
X004632Y004684D01*
X004632Y004586D02*
X004670Y004586D01*
X004670Y004487D02*
X004632Y004487D01*
X004632Y004389D02*
X004670Y004389D01*
X004670Y004290D02*
X004632Y004290D01*
X004632Y004191D02*
X004670Y004191D01*
X004773Y004191D02*
X007431Y004191D01*
X007431Y004093D02*
X001191Y004093D01*
X001191Y004191D02*
X004529Y004191D01*
X004341Y004290D02*
X001191Y004290D01*
X001191Y004389D02*
X004255Y004389D01*
X004205Y004487D02*
X001191Y004487D01*
X001191Y004586D02*
X004181Y004586D01*
X004176Y004684D02*
X001099Y004684D01*
X000651Y004783D02*
X004194Y004783D01*
X004235Y004881D02*
X000651Y004881D01*
X000651Y004980D02*
X004308Y004980D01*
X004443Y005078D02*
X000651Y005078D01*
X000651Y005177D02*
X004235Y005177D01*
X004156Y005275D02*
X000651Y005275D01*
X000651Y005374D02*
X004156Y005374D01*
X004156Y005473D02*
X000651Y005473D01*
X000651Y005571D02*
X004156Y005571D01*
X004156Y005670D02*
X000900Y005670D01*
X001032Y005768D02*
X004156Y005768D01*
X004156Y005867D02*
X001118Y005867D01*
X000651Y006151D02*
X002651Y006151D01*
X003651Y007151D01*
X005151Y007151D01*
X006151Y008151D01*
X007651Y008151D01*
X007263Y007739D02*
X006050Y007739D01*
X005952Y007640D02*
X009303Y007640D01*
X009310Y007739D02*
X008040Y007739D01*
X007997Y007581D02*
X008155Y007516D01*
X008276Y007395D01*
X008341Y007237D01*
X008341Y007066D01*
X008276Y006908D01*
X008155Y006787D01*
X007997Y006721D01*
X007306Y006721D01*
X007148Y006787D01*
X007027Y006908D01*
X006961Y007066D01*
X006961Y007237D01*
X007027Y007395D01*
X007148Y007516D01*
X007306Y007581D01*
X007997Y007581D01*
X008091Y007542D02*
X009319Y007542D01*
X009366Y007443D02*
X008227Y007443D01*
X008296Y007345D02*
X009480Y007345D01*
X009822Y007345D02*
X011006Y007345D01*
X010965Y007246D02*
X008337Y007246D01*
X008341Y007148D02*
X010961Y007148D01*
X010968Y007049D02*
X008334Y007049D01*
X008294Y006951D02*
X011009Y006951D01*
X011082Y006852D02*
X008220Y006852D01*
X008075Y006754D02*
X011227Y006754D01*
X011246Y006556D02*
X008056Y006556D01*
X008212Y006458D02*
X011090Y006458D01*
X011012Y006359D02*
X008296Y006359D01*
X008376Y006261D02*
X010971Y006261D01*
X010961Y006162D02*
X008451Y006162D01*
X008550Y006064D02*
X010962Y006064D01*
X011003Y005965D02*
X008648Y005965D01*
X008747Y005867D02*
X011068Y005867D01*
X011192Y005768D02*
X008845Y005768D01*
X008871Y005670D02*
X016621Y005670D01*
X016681Y005670D02*
X017221Y005670D01*
X017221Y005768D02*
X017061Y005768D01*
X017061Y005821D02*
X016951Y005931D01*
X017323Y005931D01*
X017221Y005829D01*
X017221Y005473D01*
X017323Y005371D01*
X016951Y005371D01*
X017061Y005481D01*
X017061Y005621D01*
X016681Y005621D01*
X016681Y005681D01*
X017061Y005681D01*
X017061Y005821D01*
X017015Y005867D02*
X017259Y005867D01*
X017221Y005571D02*
X017061Y005571D01*
X017052Y005473D02*
X017222Y005473D01*
X017320Y005374D02*
X016954Y005374D01*
X016374Y004881D02*
X017889Y004881D01*
X017829Y004783D02*
X014831Y004783D01*
X014929Y004684D02*
X017803Y004684D01*
X017803Y004586D02*
X015028Y004586D01*
X015126Y004487D02*
X017842Y004487D01*
X017921Y004389D02*
X015201Y004389D01*
X015201Y004290D02*
X017931Y004290D01*
X017931Y004191D02*
X015201Y004191D01*
X015244Y004093D02*
X015388Y004093D01*
X014981Y004321D02*
X014981Y003751D01*
X014718Y004093D02*
X013404Y004093D01*
X013371Y003994D02*
X014620Y003994D01*
X014578Y003896D02*
X013399Y003896D01*
X013468Y003797D02*
X014554Y003797D01*
X014554Y003699D02*
X013500Y003699D01*
X013500Y003600D02*
X014581Y003600D01*
X014626Y003502D02*
X013466Y003502D01*
X013396Y003403D02*
X014725Y003403D01*
X014900Y003305D02*
X013225Y003305D01*
X013077Y003305D02*
X011913Y003305D01*
X012011Y003403D02*
X012906Y003403D01*
X013151Y003651D02*
X013151Y004151D01*
X013651Y004651D01*
X014651Y004651D01*
X014981Y004321D01*
X014761Y004191D02*
X013503Y004191D01*
X013601Y004290D02*
X014701Y004290D01*
X014603Y004389D02*
X013700Y004389D01*
X013373Y004684D02*
X008871Y004684D01*
X008871Y004586D02*
X013275Y004586D01*
X013176Y004487D02*
X008871Y004487D01*
X008871Y004389D02*
X013077Y004389D01*
X012979Y004290D02*
X008871Y004290D01*
X008871Y004191D02*
X012931Y004191D01*
X012931Y004093D02*
X008871Y004093D01*
X008871Y003994D02*
X010415Y003994D01*
X010481Y004061D02*
X010241Y003821D01*
X010241Y003681D01*
X010621Y003681D01*
X010621Y003621D01*
X010681Y003621D01*
X010681Y003241D01*
X010821Y003241D01*
X011061Y003481D01*
X011061Y003621D01*
X010681Y003621D01*
X010681Y003681D01*
X011061Y003681D01*
X011061Y003821D01*
X010821Y004061D01*
X010681Y004061D01*
X010681Y003681D01*
X010621Y003681D01*
X010621Y004061D01*
X010481Y004061D01*
X010621Y003994D02*
X010681Y003994D01*
X010681Y003896D02*
X010621Y003896D01*
X010621Y003797D02*
X010681Y003797D01*
X010681Y003699D02*
X010621Y003699D01*
X010621Y003621D02*
X010241Y003621D01*
X010241Y003481D01*
X010481Y003241D01*
X010621Y003241D01*
X010621Y003621D01*
X010621Y003600D02*
X010681Y003600D01*
X010681Y003502D02*
X010621Y003502D01*
X010621Y003403D02*
X010681Y003403D01*
X010681Y003305D02*
X010621Y003305D01*
X010418Y003305D02*
X009309Y003305D01*
X009210Y003403D02*
X010319Y003403D01*
X010241Y003502D02*
X009112Y003502D01*
X009013Y003600D02*
X010241Y003600D01*
X010241Y003699D02*
X008915Y003699D01*
X008871Y003797D02*
X010241Y003797D01*
X010316Y003896D02*
X008871Y003896D01*
X008651Y003651D02*
X010651Y001651D01*
X011651Y002651D01*
X012651Y002651D01*
X012972Y002516D02*
X015475Y002516D01*
X015376Y002615D02*
X013000Y002615D01*
X013000Y002713D02*
X015183Y002713D01*
X015006Y002812D02*
X012962Y002812D01*
X012885Y002910D02*
X014920Y002910D01*
X014879Y003009D02*
X009604Y003009D01*
X009506Y003107D02*
X014864Y003107D01*
X014864Y003206D02*
X009407Y003206D01*
X009703Y002910D02*
X012418Y002910D01*
X012392Y002418D02*
X011729Y002418D01*
X011630Y002319D02*
X012542Y002319D01*
X012760Y002319D02*
X013917Y002319D01*
X013800Y002271D02*
X013594Y002065D01*
X013483Y001797D01*
X013483Y001506D01*
X013594Y001237D01*
X013800Y001031D01*
X014069Y000920D01*
X014360Y000920D01*
X014628Y001031D01*
X014834Y001237D01*
X014945Y001506D01*
X014945Y001797D01*
X014834Y002065D01*
X014628Y002271D01*
X014360Y002382D01*
X014069Y002382D01*
X013800Y002271D01*
X013750Y002221D02*
X011532Y002221D01*
X011433Y002122D02*
X013651Y002122D01*
X013577Y002024D02*
X011335Y002024D01*
X011236Y001925D02*
X013536Y001925D01*
X013496Y001826D02*
X011941Y001826D01*
X012039Y001728D02*
X013483Y001728D01*
X013483Y001629D02*
X012086Y001629D01*
X012121Y001531D02*
X013483Y001531D01*
X013514Y001432D02*
X012121Y001432D01*
X012121Y001334D02*
X013554Y001334D01*
X013596Y001235D02*
X012121Y001235D01*
X012121Y001137D02*
X013695Y001137D01*
X013793Y001038D02*
X012121Y001038D01*
X012121Y000940D02*
X014022Y000940D01*
X014406Y000940D02*
X016896Y000940D01*
X016943Y000920D02*
X017234Y000920D01*
X017502Y001031D01*
X017708Y001237D01*
X017819Y001506D01*
X017819Y001797D01*
X017708Y002065D01*
X017502Y002271D01*
X017234Y002382D01*
X016943Y002382D01*
X016674Y002271D01*
X016468Y002065D01*
X016357Y001797D01*
X016357Y001506D01*
X016468Y001237D01*
X016674Y001031D01*
X016943Y000920D01*
X016667Y001038D02*
X014635Y001038D01*
X014733Y001137D02*
X016569Y001137D01*
X016470Y001235D02*
X014832Y001235D01*
X014874Y001334D02*
X016428Y001334D01*
X016388Y001432D02*
X014915Y001432D01*
X014945Y001531D02*
X016357Y001531D01*
X016357Y001629D02*
X014945Y001629D01*
X014945Y001728D02*
X016357Y001728D01*
X016370Y001826D02*
X014933Y001826D01*
X014892Y001925D02*
X016410Y001925D01*
X016451Y002024D02*
X014851Y002024D01*
X014777Y002122D02*
X016525Y002122D01*
X016624Y002221D02*
X014679Y002221D01*
X014512Y002319D02*
X016791Y002319D01*
X017386Y002319D02*
X018659Y002319D01*
X018636Y002221D02*
X017553Y002221D01*
X017651Y002122D02*
X019101Y002122D01*
X018683Y001925D02*
X017766Y001925D01*
X017725Y002024D02*
X018646Y002024D01*
X018744Y001826D02*
X017807Y001826D01*
X017819Y001728D02*
X018849Y001728D01*
X018895Y001629D02*
X017819Y001629D01*
X017819Y001531D02*
X018767Y001531D01*
X018683Y001432D02*
X017789Y001432D01*
X017748Y001334D02*
X018642Y001334D01*
X018611Y001235D02*
X017706Y001235D01*
X017607Y001137D02*
X018611Y001137D01*
X018614Y001038D02*
X017509Y001038D01*
X017280Y000940D02*
X018654Y000940D01*
X018698Y000841D02*
X012121Y000841D01*
X012115Y000742D02*
X018796Y000742D01*
X018703Y002418D02*
X012910Y002418D01*
X013151Y003651D02*
X011651Y003651D01*
X011390Y003305D02*
X010884Y003305D01*
X010983Y003403D02*
X011291Y003403D01*
X011221Y003502D02*
X011061Y003502D01*
X011061Y003600D02*
X011221Y003600D01*
X011221Y003699D02*
X011061Y003699D01*
X011061Y003797D02*
X011221Y003797D01*
X011288Y003896D02*
X010986Y003896D01*
X010888Y003994D02*
X011386Y003994D01*
X011916Y003994D02*
X012931Y003994D01*
X012903Y003896D02*
X012015Y003896D01*
X011997Y004721D02*
X011306Y004721D01*
X011148Y004787D01*
X011027Y004908D01*
X010961Y005066D01*
X010961Y005237D01*
X011027Y005395D01*
X011148Y005516D01*
X011306Y005581D01*
X011997Y005581D01*
X012155Y005516D01*
X012276Y005395D01*
X012341Y005237D01*
X012341Y005066D01*
X012276Y004908D01*
X012155Y004787D01*
X011997Y004721D01*
X012145Y004783D02*
X013472Y004783D01*
X013443Y005867D02*
X012235Y005867D01*
X012110Y005768D02*
X016241Y005768D01*
X016287Y005867D02*
X014359Y005867D01*
X014151Y006151D02*
X019151Y006151D01*
X019151Y007151D02*
X017651Y007151D01*
X017651Y006651D02*
X012651Y006651D01*
X012303Y006655D02*
X003466Y006655D01*
X003368Y006556D02*
X007246Y006556D01*
X007090Y006458D02*
X003269Y006458D01*
X003171Y006359D02*
X007006Y006359D01*
X006926Y006261D02*
X003072Y006261D01*
X002973Y006162D02*
X006851Y006162D01*
X006753Y006064D02*
X005129Y006064D01*
X005146Y005965D02*
X006654Y005965D01*
X006651Y005651D02*
X004651Y005651D01*
X004156Y005965D02*
X002776Y005965D01*
X002875Y006064D02*
X004173Y006064D01*
X003565Y006754D02*
X007227Y006754D01*
X007082Y006852D02*
X003663Y006852D01*
X003337Y007148D02*
X001191Y007148D01*
X001191Y007246D02*
X003435Y007246D01*
X003534Y007345D02*
X001155Y007345D01*
X001115Y007443D02*
X005132Y007443D01*
X005231Y007542D02*
X001024Y007542D01*
X000881Y007640D02*
X005329Y007640D01*
X005428Y007739D02*
X004629Y007739D01*
X004646Y007756D02*
X004646Y007931D01*
X005060Y007931D01*
X005242Y007931D01*
X006242Y008931D01*
X007017Y008931D01*
X007027Y008908D01*
X007148Y008787D01*
X007306Y008721D01*
X007997Y008721D01*
X008155Y008787D01*
X008276Y008908D01*
X008341Y009066D01*
X008341Y009237D01*
X008276Y009395D01*
X008155Y009516D01*
X007997Y009581D01*
X007306Y009581D01*
X007148Y009516D01*
X007027Y009395D01*
X007017Y009371D01*
X006060Y009371D01*
X005931Y009242D01*
X005060Y008371D01*
X004646Y008371D01*
X004646Y008546D01*
X004546Y008646D01*
X003756Y008646D01*
X003656Y008546D01*
X003656Y007756D01*
X003756Y007656D01*
X004546Y007656D01*
X004646Y007756D01*
X004646Y007838D02*
X005526Y007838D01*
X005625Y007936D02*
X005247Y007936D01*
X005346Y008035D02*
X005724Y008035D01*
X005822Y008133D02*
X005444Y008133D01*
X005543Y008232D02*
X005921Y008232D01*
X006019Y008330D02*
X005641Y008330D01*
X005740Y008429D02*
X007061Y008429D01*
X007176Y008527D02*
X005838Y008527D01*
X005937Y008626D02*
X013221Y008626D01*
X013221Y008724D02*
X008005Y008724D01*
X008191Y008823D02*
X011145Y008823D01*
X011124Y008838D02*
X011176Y008801D01*
X011234Y008771D01*
X011295Y008751D01*
X011359Y008741D01*
X011621Y008741D01*
X011621Y009121D01*
X011681Y009121D01*
X011681Y008741D01*
X011943Y008741D01*
X012007Y008751D01*
X012069Y008771D01*
X012126Y008801D01*
X012178Y008838D01*
X012224Y008884D01*
X012262Y008936D01*
X012291Y008994D01*
X012311Y009055D01*
X012321Y009119D01*
X012321Y009121D01*
X011681Y009121D01*
X011681Y009181D01*
X011621Y009181D01*
X011621Y009121D01*
X010981Y009121D01*
X010981Y009119D01*
X010991Y009055D01*
X011011Y008994D01*
X011041Y008936D01*
X011078Y008884D01*
X011124Y008838D01*
X011051Y008922D02*
X008281Y008922D01*
X008322Y009020D02*
X011003Y009020D01*
X010981Y009119D02*
X008341Y009119D01*
X008341Y009217D02*
X010987Y009217D01*
X010991Y009247D02*
X010981Y009183D01*
X010981Y009181D01*
X011621Y009181D01*
X011621Y009561D01*
X011359Y009561D01*
X011295Y009551D01*
X011234Y009531D01*
X011176Y009502D01*
X011124Y009464D01*
X011078Y009418D01*
X011041Y009366D01*
X011011Y009309D01*
X010991Y009247D01*
X011015Y009316D02*
X008308Y009316D01*
X008256Y009414D02*
X011076Y009414D01*
X011198Y009513D02*
X008158Y009513D01*
X007997Y009721D02*
X008155Y009787D01*
X008276Y009908D01*
X008341Y010066D01*
X008341Y010237D01*
X008276Y010395D01*
X008155Y010516D01*
X007997Y010581D01*
X007306Y010581D01*
X007148Y010516D01*
X007027Y010395D01*
X007017Y010371D01*
X004646Y010371D01*
X004646Y010546D01*
X004546Y010646D01*
X003756Y010646D01*
X003656Y010546D01*
X003656Y009756D01*
X003756Y009656D01*
X004546Y009656D01*
X004646Y009756D01*
X004646Y009931D01*
X007017Y009931D01*
X007027Y009908D01*
X007148Y009787D01*
X007306Y009721D01*
X007997Y009721D01*
X008176Y009808D02*
X011126Y009808D01*
X011148Y009787D02*
X011306Y009721D01*
X011997Y009721D01*
X012155Y009787D01*
X012276Y009908D01*
X012285Y009931D01*
X012656Y009931D01*
X012656Y009756D01*
X012756Y009656D01*
X013547Y009656D01*
X013646Y009756D01*
X013646Y010547D01*
X013547Y010646D01*
X012756Y010646D01*
X012656Y010547D01*
X012656Y010371D01*
X012285Y010371D01*
X012276Y010395D01*
X012155Y010516D01*
X011997Y010581D01*
X011306Y010581D01*
X011148Y010516D01*
X011027Y010395D01*
X010961Y010237D01*
X010961Y010066D01*
X011027Y009908D01*
X011148Y009787D01*
X011027Y009907D02*
X008275Y009907D01*
X008316Y010006D02*
X010986Y010006D01*
X010961Y010104D02*
X008341Y010104D01*
X008341Y010203D02*
X010961Y010203D01*
X010988Y010301D02*
X008314Y010301D01*
X008271Y010400D02*
X011032Y010400D01*
X011130Y010498D02*
X008172Y010498D01*
X008113Y010794D02*
X011140Y010794D01*
X011148Y010787D02*
X011306Y010721D01*
X011997Y010721D01*
X012155Y010787D01*
X012276Y010908D01*
X012285Y010931D01*
X015378Y010931D01*
X015454Y010856D01*
X015582Y010803D01*
X015720Y010803D01*
X015849Y010856D01*
X015947Y010954D01*
X016000Y011082D01*
X016000Y011220D01*
X015947Y011349D01*
X015849Y011447D01*
X015720Y011500D01*
X015582Y011500D01*
X015454Y011447D01*
X015378Y011371D01*
X012285Y011371D01*
X012276Y011395D01*
X012155Y011516D01*
X011997Y011581D01*
X011306Y011581D01*
X011148Y011516D01*
X011027Y011395D01*
X010961Y011237D01*
X010961Y011066D01*
X011027Y010908D01*
X011148Y010787D01*
X011042Y010892D02*
X008230Y010892D01*
X008290Y010991D02*
X010992Y010991D01*
X010961Y011089D02*
X008316Y011089D01*
X008320Y011188D02*
X010961Y011188D01*
X010982Y011287D02*
X008298Y011287D01*
X008248Y011385D02*
X011023Y011385D01*
X011116Y011484D02*
X008795Y011484D01*
X008893Y011582D02*
X016221Y011582D01*
X016221Y011484D02*
X015759Y011484D01*
X015910Y011385D02*
X016309Y011385D01*
X016221Y011473D02*
X016473Y011221D01*
X016829Y011221D01*
X017081Y011473D01*
X017081Y011829D01*
X016979Y011931D01*
X017351Y011931D01*
X017241Y011821D01*
X017241Y011681D01*
X017621Y011681D01*
X017621Y011621D01*
X017681Y011621D01*
X017681Y011241D01*
X017821Y011241D01*
X018061Y011481D01*
X018061Y011621D01*
X017681Y011621D01*
X017681Y011681D01*
X019651Y011681D01*
X019651Y011779D02*
X018061Y011779D01*
X018082Y011803D02*
X018061Y011811D01*
X018061Y011681D01*
X017681Y011681D01*
X017621Y011681D02*
X017081Y011681D01*
X017081Y011779D02*
X017241Y011779D01*
X017298Y011878D02*
X017033Y011878D01*
X017081Y011582D02*
X017241Y011582D01*
X017241Y011621D02*
X017241Y011481D01*
X017481Y011241D01*
X017621Y011241D01*
X017621Y011621D01*
X017241Y011621D01*
X017241Y011484D02*
X017081Y011484D01*
X016993Y011385D02*
X017337Y011385D01*
X017436Y011287D02*
X016895Y011287D01*
X016408Y011287D02*
X015972Y011287D01*
X016000Y011188D02*
X019651Y011188D01*
X019651Y011089D02*
X016000Y011089D01*
X015962Y010991D02*
X019651Y010991D01*
X019651Y010892D02*
X015885Y010892D01*
X015651Y011151D02*
X011651Y011151D01*
X012162Y010794D02*
X019651Y010794D01*
X019651Y010695D02*
X000959Y010695D01*
X001058Y010794D02*
X007189Y010794D01*
X007176Y010801D02*
X007234Y010771D01*
X007295Y010751D01*
X007359Y010741D01*
X007621Y010741D01*
X007621Y011121D01*
X006981Y011121D01*
X006981Y011119D01*
X006991Y011055D01*
X007011Y010994D01*
X007041Y010936D01*
X007078Y010884D01*
X007124Y010838D01*
X007176Y010801D01*
X007072Y010892D02*
X006385Y010892D01*
X006462Y010991D02*
X007013Y010991D01*
X006986Y011089D02*
X006500Y011089D01*
X006500Y011188D02*
X006982Y011188D01*
X007004Y011287D02*
X006472Y011287D01*
X006410Y011385D02*
X007054Y011385D01*
X007621Y011089D02*
X007681Y011089D01*
X007681Y010991D02*
X007621Y010991D01*
X007621Y010892D02*
X007681Y010892D01*
X007681Y010794D02*
X007621Y010794D01*
X007130Y010498D02*
X004646Y010498D01*
X004646Y010400D02*
X007032Y010400D01*
X007027Y009907D02*
X004646Y009907D01*
X004646Y009808D02*
X007126Y009808D01*
X007145Y009513D02*
X004621Y009513D01*
X004626Y009496D02*
X004616Y009534D01*
X004596Y009568D01*
X004568Y009596D01*
X004534Y009616D01*
X004496Y009626D01*
X004201Y009626D01*
X004201Y009201D01*
X004101Y009201D01*
X004101Y009101D01*
X004201Y009101D01*
X004201Y008676D01*
X004496Y008676D01*
X004534Y008687D01*
X004568Y008706D01*
X004596Y008734D01*
X004616Y008768D01*
X004626Y008807D01*
X004626Y009101D01*
X004201Y009101D01*
X004201Y009201D01*
X004626Y009201D01*
X004626Y009496D01*
X004626Y009414D02*
X007046Y009414D01*
X007021Y008922D02*
X006233Y008922D01*
X006134Y008823D02*
X007111Y008823D01*
X007298Y008724D02*
X006036Y008724D01*
X005709Y009020D02*
X004626Y009020D01*
X004626Y008922D02*
X005610Y008922D01*
X005512Y008823D02*
X004626Y008823D01*
X004586Y008724D02*
X005413Y008724D01*
X005315Y008626D02*
X004566Y008626D01*
X004646Y008527D02*
X005216Y008527D01*
X005118Y008429D02*
X004646Y008429D01*
X004201Y008724D02*
X004101Y008724D01*
X004101Y008676D02*
X004101Y009101D01*
X003676Y009101D01*
X003676Y008807D01*
X003687Y008768D01*
X003706Y008734D01*
X003734Y008706D01*
X003768Y008687D01*
X003807Y008676D01*
X004101Y008676D01*
X004101Y008823D02*
X004201Y008823D01*
X004201Y008922D02*
X004101Y008922D01*
X004101Y009020D02*
X004201Y009020D01*
X004201Y009119D02*
X005808Y009119D01*
X005906Y009217D02*
X004626Y009217D01*
X004626Y009316D02*
X006005Y009316D01*
X006151Y009151D02*
X007651Y009151D01*
X008127Y008527D02*
X011176Y008527D01*
X011061Y008429D02*
X008242Y008429D01*
X008302Y008330D02*
X011000Y008330D01*
X010961Y008232D02*
X008341Y008232D01*
X008341Y008133D02*
X010961Y008133D01*
X010974Y008035D02*
X008328Y008035D01*
X008287Y007936D02*
X009443Y007936D01*
X009351Y007838D02*
X008206Y007838D01*
X007211Y007542D02*
X005853Y007542D01*
X005754Y007443D02*
X007075Y007443D01*
X007006Y007345D02*
X005656Y007345D01*
X005557Y007246D02*
X006965Y007246D01*
X006961Y007148D02*
X005459Y007148D01*
X005360Y007049D02*
X006968Y007049D01*
X007009Y006951D02*
X005262Y006951D01*
X006149Y007838D02*
X007097Y007838D01*
X006151Y009151D02*
X005151Y008151D01*
X004151Y008151D01*
X003656Y008133D02*
X003500Y008133D01*
X003495Y008232D02*
X003656Y008232D01*
X003656Y008330D02*
X003454Y008330D01*
X003366Y008429D02*
X003656Y008429D01*
X003656Y008527D02*
X001039Y008527D01*
X001106Y008626D02*
X003736Y008626D01*
X003716Y008724D02*
X001191Y008724D01*
X001191Y008823D02*
X003676Y008823D01*
X003676Y008922D02*
X001191Y008922D01*
X001191Y009020D02*
X003676Y009020D01*
X003676Y009201D02*
X003676Y009496D01*
X003687Y009534D01*
X003706Y009568D01*
X003734Y009596D01*
X003768Y009616D01*
X003807Y009626D01*
X004101Y009626D01*
X004101Y009201D01*
X003676Y009201D01*
X003676Y009217D02*
X001191Y009217D01*
X001191Y009119D02*
X004101Y009119D01*
X004101Y009217D02*
X004201Y009217D01*
X004201Y009316D02*
X004101Y009316D01*
X004101Y009414D02*
X004201Y009414D01*
X004201Y009513D02*
X004101Y009513D01*
X004101Y009611D02*
X004201Y009611D01*
X004541Y009611D02*
X014303Y009611D01*
X014331Y009513D02*
X012105Y009513D01*
X012126Y009502D02*
X012069Y009531D01*
X012007Y009551D01*
X011943Y009561D01*
X011681Y009561D01*
X011681Y009181D01*
X012321Y009181D01*
X012321Y009183D01*
X012311Y009247D01*
X012291Y009309D01*
X012262Y009366D01*
X012224Y009418D01*
X012178Y009464D01*
X012126Y009502D01*
X012227Y009414D02*
X014395Y009414D01*
X014151Y009151D02*
X017151Y009151D01*
X017269Y008823D02*
X018611Y008823D01*
X018611Y008922D02*
X017414Y008922D01*
X017474Y009020D02*
X018611Y009020D01*
X018611Y009119D02*
X017500Y009119D01*
X017500Y009217D02*
X018611Y009217D01*
X018611Y009316D02*
X017752Y009316D01*
X017907Y009414D02*
X018611Y009414D01*
X018611Y009513D02*
X017971Y009513D01*
X018000Y009611D02*
X018631Y009611D01*
X018000Y009710D02*
X019651Y009710D01*
X019651Y009808D02*
X017963Y009808D01*
X017888Y009907D02*
X019651Y009907D01*
X019651Y010006D02*
X014603Y010006D01*
X014625Y010104D02*
X019651Y010104D01*
X019651Y010203D02*
X014624Y010203D01*
X014626Y010189D02*
X014614Y010262D01*
X014591Y010334D01*
X014557Y010400D01*
X014513Y010461D01*
X014461Y010513D01*
X014400Y010557D01*
X014334Y010591D01*
X014262Y010614D01*
X014189Y010626D01*
X014170Y010626D01*
X014170Y010170D01*
X014132Y010170D01*
X014132Y010132D01*
X014170Y010132D01*
X014170Y010170D01*
X014626Y010170D01*
X014626Y010189D01*
X014602Y010301D02*
X019651Y010301D01*
X019651Y010400D02*
X014558Y010400D01*
X014476Y010498D02*
X019651Y010498D01*
X019651Y010597D02*
X014317Y010597D01*
X014170Y010597D02*
X014132Y010597D01*
X014132Y010626D02*
X014114Y010626D01*
X014040Y010614D01*
X013969Y010591D01*
X013902Y010557D01*
X013842Y010513D01*
X013789Y010461D01*
X013745Y010400D01*
X013711Y010334D01*
X013688Y010262D01*
X013676Y010189D01*
X013676Y010170D01*
X014132Y010170D01*
X014132Y010626D01*
X014132Y010498D02*
X014170Y010498D01*
X014170Y010400D02*
X014132Y010400D01*
X014132Y010301D02*
X014170Y010301D01*
X014170Y010203D02*
X014132Y010203D01*
X014132Y010132D02*
X013676Y010132D01*
X013676Y010114D01*
X013688Y010040D01*
X013711Y009969D01*
X013745Y009902D01*
X013789Y009842D01*
X013842Y009789D01*
X013902Y009745D01*
X013969Y009711D01*
X014040Y009688D01*
X014114Y009676D01*
X014132Y009676D01*
X014132Y010132D01*
X014132Y010104D02*
X014170Y010104D01*
X014170Y010006D02*
X014132Y010006D01*
X014132Y009907D02*
X014170Y009907D01*
X014170Y009808D02*
X014132Y009808D01*
X014132Y009710D02*
X014170Y009710D01*
X013972Y009710D02*
X013600Y009710D01*
X013646Y009808D02*
X013822Y009808D01*
X013742Y009907D02*
X013646Y009907D01*
X013646Y010006D02*
X013699Y010006D01*
X013678Y010104D02*
X013646Y010104D01*
X013646Y010203D02*
X013678Y010203D01*
X013700Y010301D02*
X013646Y010301D01*
X013646Y010400D02*
X013745Y010400D01*
X013826Y010498D02*
X013646Y010498D01*
X013596Y010597D02*
X013986Y010597D01*
X013151Y010151D02*
X011651Y010151D01*
X012172Y010498D02*
X012656Y010498D01*
X012656Y010400D02*
X012271Y010400D01*
X012706Y010597D02*
X004596Y010597D01*
X004151Y010151D02*
X007651Y010151D01*
X008992Y011681D02*
X016221Y011681D01*
X016221Y011779D02*
X012137Y011779D01*
X012155Y011787D02*
X012276Y011908D01*
X012285Y011931D01*
X016323Y011931D01*
X016221Y011829D01*
X016221Y011473D01*
X016270Y011878D02*
X012246Y011878D01*
X012155Y011787D02*
X011997Y011721D01*
X011306Y011721D01*
X011148Y011787D01*
X011027Y011908D01*
X010961Y012066D01*
X010961Y012237D01*
X011027Y012395D01*
X011148Y012516D01*
X011306Y012581D01*
X011997Y012581D01*
X012155Y012516D01*
X012276Y012395D01*
X012285Y012371D01*
X017878Y012371D01*
X017954Y012447D01*
X018082Y012500D01*
X018220Y012500D01*
X018349Y012447D01*
X018447Y012349D01*
X018500Y012220D01*
X018500Y012082D01*
X018447Y011954D01*
X018349Y011856D01*
X018220Y011803D01*
X018082Y011803D01*
X018061Y011582D02*
X019651Y011582D01*
X019651Y011484D02*
X018061Y011484D01*
X017965Y011385D02*
X019651Y011385D01*
X019651Y011287D02*
X017866Y011287D01*
X017681Y011287D02*
X017621Y011287D01*
X017621Y011385D02*
X017681Y011385D01*
X017681Y011484D02*
X017621Y011484D01*
X017621Y011582D02*
X017681Y011582D01*
X018151Y012151D02*
X011651Y012151D01*
X011273Y012568D02*
X009371Y012568D01*
X009371Y012666D02*
X019651Y012666D01*
X019651Y012568D02*
X012029Y012568D01*
X011997Y012721D02*
X012155Y012787D01*
X012276Y012908D01*
X012341Y013066D01*
X012341Y013237D01*
X012276Y013395D01*
X012239Y013431D01*
X012242Y013431D01*
X014378Y013431D01*
X014454Y013356D01*
X014582Y013303D01*
X014720Y013303D01*
X014849Y013356D01*
X018863Y013356D01*
X018856Y013349D02*
X018803Y013220D01*
X018803Y013082D01*
X018856Y012954D01*
X018954Y012856D01*
X019082Y012803D01*
X019220Y012803D01*
X019349Y012856D01*
X019447Y012954D01*
X019500Y013082D01*
X019500Y013220D01*
X019447Y013349D01*
X019349Y013447D01*
X019220Y013500D01*
X019082Y013500D01*
X018954Y013447D01*
X018856Y013349D01*
X018818Y013257D02*
X012333Y013257D01*
X012341Y013159D02*
X018803Y013159D01*
X018812Y013060D02*
X012339Y013060D01*
X012298Y012962D02*
X018852Y012962D01*
X018946Y012863D02*
X012231Y012863D01*
X012102Y012765D02*
X019651Y012765D01*
X019651Y012863D02*
X019356Y012863D01*
X019450Y012962D02*
X019651Y012962D01*
X019651Y013060D02*
X019491Y013060D01*
X019500Y013159D02*
X019651Y013159D01*
X019651Y013257D02*
X019484Y013257D01*
X019439Y013356D02*
X019651Y013356D01*
X019651Y013455D02*
X019329Y013455D01*
X019651Y013553D02*
X014988Y013553D01*
X015000Y013582D02*
X015000Y013720D01*
X014947Y013849D01*
X014849Y013947D01*
X014720Y014000D01*
X014582Y014000D01*
X014454Y013947D01*
X014378Y013871D01*
X012979Y013871D01*
X013081Y013973D01*
X013081Y014329D01*
X012829Y014581D01*
X012473Y014581D01*
X012279Y014387D01*
X012276Y014395D01*
X012155Y014516D01*
X011997Y014581D01*
X011306Y014581D01*
X011148Y014516D01*
X011027Y014395D01*
X011017Y014371D01*
X010864Y014371D01*
X010947Y014454D01*
X011000Y014582D01*
X011000Y014720D01*
X010947Y014849D01*
X010864Y014931D01*
X011017Y014931D01*
X011027Y014908D01*
X011148Y014787D01*
X011306Y014721D01*
X011997Y014721D01*
X012155Y014787D01*
X012276Y014908D01*
X012341Y015066D01*
X012341Y015237D01*
X012276Y015395D01*
X012155Y015516D01*
X011997Y015581D01*
X011306Y015581D01*
X011148Y015516D01*
X011027Y015395D01*
X011017Y015371D01*
X009924Y015371D01*
X009849Y015447D01*
X009720Y015500D01*
X009582Y015500D01*
X009454Y015447D01*
X009356Y015349D01*
X009303Y015220D01*
X009303Y015082D01*
X009356Y014954D01*
X009438Y014871D01*
X008239Y014871D01*
X008276Y014908D01*
X008341Y015066D01*
X008341Y015237D01*
X008276Y015395D01*
X008155Y015516D01*
X007997Y015581D01*
X007306Y015581D01*
X007148Y015516D01*
X007027Y015395D01*
X007017Y015371D01*
X006424Y015371D01*
X006349Y015447D01*
X006220Y015500D01*
X006082Y015500D01*
X005954Y015447D01*
X005856Y015349D01*
X005803Y015220D01*
X005803Y015082D01*
X005803Y015081D01*
X005532Y015081D01*
X005242Y015371D01*
X005060Y015371D01*
X005039Y015371D01*
X004829Y015581D01*
X004473Y015581D01*
X004263Y015371D01*
X002742Y015371D01*
X002500Y015614D01*
X002500Y015720D01*
X002447Y015849D01*
X002349Y015947D01*
X002220Y016000D01*
X002082Y016000D01*
X001954Y015947D01*
X001856Y015849D01*
X001803Y015720D01*
X001803Y015582D01*
X001856Y015454D01*
X001954Y015356D01*
X002082Y015303D01*
X002189Y015303D01*
X002560Y014931D01*
X002742Y014931D01*
X004263Y014931D01*
X004473Y014721D01*
X004829Y014721D01*
X005039Y014931D01*
X005060Y014931D01*
X005221Y014770D01*
X005221Y014473D01*
X005473Y014221D01*
X005829Y014221D01*
X006039Y014431D01*
X007063Y014431D01*
X007027Y014395D01*
X006961Y014237D01*
X006961Y014066D01*
X007027Y013908D01*
X007148Y013787D01*
X007306Y013721D01*
X007997Y013721D01*
X008155Y013787D01*
X008276Y013908D01*
X008341Y014066D01*
X008341Y014237D01*
X008276Y014395D01*
X008239Y014431D01*
X009938Y014431D01*
X009856Y014349D01*
X009803Y014220D01*
X009803Y014082D01*
X009856Y013954D01*
X009954Y013856D01*
X010082Y013803D01*
X010220Y013803D01*
X010349Y013856D01*
X010424Y013931D01*
X011017Y013931D01*
X011027Y013908D01*
X011148Y013787D01*
X011306Y013721D01*
X011770Y013721D01*
X011910Y013581D01*
X011306Y013581D01*
X011148Y013516D01*
X011027Y013395D01*
X010961Y013237D01*
X010961Y013066D01*
X011027Y012908D01*
X011148Y012787D01*
X011306Y012721D01*
X011997Y012721D01*
X012201Y012469D02*
X018008Y012469D01*
X018294Y012469D02*
X019651Y012469D01*
X019651Y012371D02*
X018425Y012371D01*
X018478Y012272D02*
X019651Y012272D01*
X019651Y012173D02*
X018500Y012173D01*
X018497Y012075D02*
X019651Y012075D01*
X019651Y011976D02*
X018456Y011976D01*
X018371Y011878D02*
X019651Y011878D01*
X018973Y013455D02*
X014947Y013455D01*
X014947Y013454D02*
X015000Y013582D01*
X015000Y013652D02*
X019651Y013652D01*
X019651Y013750D02*
X017830Y013750D01*
X017821Y013741D02*
X018061Y013981D01*
X018061Y014121D01*
X017681Y014121D01*
X017681Y013741D01*
X017821Y013741D01*
X017681Y013750D02*
X017621Y013750D01*
X017621Y013741D02*
X017621Y014121D01*
X017681Y014121D01*
X017681Y014181D01*
X018061Y014181D01*
X018061Y014321D01*
X017821Y014561D01*
X017681Y014561D01*
X017681Y014181D01*
X017621Y014181D01*
X017621Y014121D01*
X017241Y014121D01*
X017241Y013981D01*
X017481Y013741D01*
X017621Y013741D01*
X017621Y013849D02*
X017681Y013849D01*
X017681Y013947D02*
X017621Y013947D01*
X017621Y014046D02*
X017681Y014046D01*
X017681Y014144D02*
X019651Y014144D01*
X019651Y014046D02*
X018061Y014046D01*
X018027Y013947D02*
X019651Y013947D01*
X019651Y013849D02*
X017929Y013849D01*
X018061Y014243D02*
X019651Y014243D01*
X019651Y014341D02*
X018041Y014341D01*
X017942Y014440D02*
X019651Y014440D01*
X019651Y014539D02*
X017844Y014539D01*
X017681Y014539D02*
X017621Y014539D01*
X017621Y014561D02*
X017621Y014181D01*
X017241Y014181D01*
X017241Y014321D01*
X017481Y014561D01*
X017621Y014561D01*
X017621Y014440D02*
X017681Y014440D01*
X017681Y014341D02*
X017621Y014341D01*
X017621Y014243D02*
X017681Y014243D01*
X017621Y014144D02*
X017081Y014144D01*
X017081Y014046D02*
X017241Y014046D01*
X017275Y013947D02*
X017055Y013947D01*
X017081Y013973D02*
X017081Y014329D01*
X016829Y014581D01*
X016473Y014581D01*
X016221Y014329D01*
X016221Y013973D01*
X016473Y013721D01*
X016829Y013721D01*
X017081Y013973D01*
X016957Y013849D02*
X017374Y013849D01*
X017472Y013750D02*
X016858Y013750D01*
X017081Y014243D02*
X017241Y014243D01*
X017262Y014341D02*
X017069Y014341D01*
X016970Y014440D02*
X017360Y014440D01*
X017459Y014539D02*
X016872Y014539D01*
X016430Y014539D02*
X015872Y014539D01*
X015829Y014581D02*
X015473Y014581D01*
X015221Y014329D01*
X015221Y013973D01*
X015473Y013721D01*
X015829Y013721D01*
X016081Y013973D01*
X016081Y014329D01*
X015829Y014581D01*
X015970Y014440D02*
X016332Y014440D01*
X016233Y014341D02*
X016069Y014341D01*
X016081Y014243D02*
X016221Y014243D01*
X016221Y014144D02*
X016081Y014144D01*
X016081Y014046D02*
X016221Y014046D01*
X016247Y013947D02*
X016055Y013947D01*
X015957Y013849D02*
X016346Y013849D01*
X016444Y013750D02*
X015858Y013750D01*
X015444Y013750D02*
X014987Y013750D01*
X014946Y013849D02*
X015346Y013849D01*
X015247Y013947D02*
X014847Y013947D01*
X015221Y014046D02*
X013081Y014046D01*
X013081Y014144D02*
X015221Y014144D01*
X015221Y014243D02*
X013081Y014243D01*
X013069Y014341D02*
X015233Y014341D01*
X015332Y014440D02*
X012970Y014440D01*
X012872Y014539D02*
X015430Y014539D01*
X014561Y014981D02*
X014561Y015121D01*
X014181Y015121D01*
X014181Y014741D01*
X014321Y014741D01*
X014561Y014981D01*
X014561Y015031D02*
X019651Y015031D01*
X019651Y014933D02*
X014512Y014933D01*
X014414Y014834D02*
X019651Y014834D01*
X019651Y014736D02*
X012031Y014736D01*
X012202Y014834D02*
X013888Y014834D01*
X013981Y014741D02*
X013741Y014981D01*
X013741Y015121D01*
X014121Y015121D01*
X014121Y015181D01*
X013741Y015181D01*
X013741Y015321D01*
X013981Y015561D01*
X014121Y015561D01*
X014121Y015181D01*
X014181Y015181D01*
X014181Y015561D01*
X014321Y015561D01*
X014561Y015321D01*
X014561Y015181D01*
X014181Y015181D01*
X014181Y015121D01*
X014121Y015121D01*
X014121Y014741D01*
X013981Y014741D01*
X014121Y014834D02*
X014181Y014834D01*
X014181Y014933D02*
X014121Y014933D01*
X014121Y015031D02*
X014181Y015031D01*
X014181Y015130D02*
X019651Y015130D01*
X019651Y015228D02*
X014561Y015228D01*
X014555Y015327D02*
X019651Y015327D01*
X019651Y015425D02*
X014457Y015425D01*
X014358Y015524D02*
X019651Y015524D01*
X019651Y015622D02*
X002500Y015622D01*
X002499Y015721D02*
X019651Y015721D01*
X019651Y015820D02*
X014428Y015820D01*
X014526Y015918D02*
X019651Y015918D01*
X019651Y016017D02*
X014581Y016017D01*
X014581Y015973D02*
X014329Y015721D01*
X013973Y015721D01*
X013721Y015973D01*
X013721Y016329D01*
X013973Y016581D01*
X014329Y016581D01*
X014581Y016329D01*
X014581Y015973D01*
X014581Y016115D02*
X019651Y016115D01*
X019651Y016214D02*
X014581Y016214D01*
X014581Y016312D02*
X016382Y016312D01*
X016473Y016221D02*
X016221Y016473D01*
X016221Y016829D01*
X016473Y017081D01*
X016829Y017081D01*
X017081Y016829D01*
X017081Y016473D01*
X016829Y016221D01*
X016473Y016221D01*
X016283Y016411D02*
X014500Y016411D01*
X014401Y016509D02*
X016221Y016509D01*
X016221Y016608D02*
X005500Y016608D01*
X005500Y016582D02*
X005500Y016720D01*
X005447Y016849D01*
X005349Y016947D01*
X005220Y017000D01*
X005082Y017000D01*
X004954Y016947D01*
X004878Y016871D01*
X001924Y016871D01*
X001849Y016947D01*
X001720Y017000D01*
X001582Y017000D01*
X001454Y016947D01*
X001356Y016849D01*
X001303Y016720D01*
X001303Y016582D01*
X001356Y016454D01*
X001454Y016356D01*
X001582Y016303D01*
X001720Y016303D01*
X001849Y016356D01*
X001924Y016431D01*
X003938Y016431D01*
X003856Y016349D01*
X003803Y016220D01*
X003803Y016082D01*
X003856Y015954D01*
X003954Y015856D01*
X004082Y015803D01*
X004220Y015803D01*
X004349Y015856D01*
X004424Y015931D01*
X007017Y015931D01*
X007027Y015908D01*
X007148Y015787D01*
X007306Y015721D01*
X007997Y015721D01*
X008155Y015787D01*
X008276Y015908D01*
X008341Y016066D01*
X008341Y016237D01*
X008276Y016395D01*
X008155Y016516D01*
X007997Y016581D01*
X007306Y016581D01*
X007148Y016516D01*
X007027Y016395D01*
X007017Y016371D01*
X005364Y016371D01*
X005447Y016454D01*
X005500Y016582D01*
X005470Y016509D02*
X007141Y016509D01*
X007043Y016411D02*
X005404Y016411D01*
X005500Y016706D02*
X016221Y016706D01*
X016221Y016805D02*
X015913Y016805D01*
X015829Y016721D02*
X016081Y016973D01*
X016081Y017329D01*
X015829Y017581D01*
X015473Y017581D01*
X015221Y017329D01*
X015221Y016973D01*
X015473Y016721D01*
X015829Y016721D01*
X016012Y016904D02*
X016295Y016904D01*
X016394Y017002D02*
X016081Y017002D01*
X016081Y017101D02*
X019651Y017101D01*
X019651Y017199D02*
X016081Y017199D01*
X016081Y017298D02*
X019651Y017298D01*
X019651Y017396D02*
X016014Y017396D01*
X015916Y017495D02*
X019651Y017495D01*
X019651Y017593D02*
X010500Y017593D01*
X010500Y017692D02*
X019651Y017692D01*
X019651Y017790D02*
X012159Y017790D01*
X012155Y017787D02*
X012276Y017908D01*
X012341Y018066D01*
X012341Y018237D01*
X012276Y018395D01*
X012155Y018516D01*
X011997Y018581D01*
X011306Y018581D01*
X011148Y018516D01*
X011027Y018395D01*
X010961Y018237D01*
X010961Y018066D01*
X011027Y017908D01*
X011148Y017787D01*
X011306Y017721D01*
X011997Y017721D01*
X012155Y017787D01*
X012257Y017889D02*
X019651Y017889D01*
X019651Y017988D02*
X012309Y017988D01*
X012341Y018086D02*
X019651Y018086D01*
X019651Y018185D02*
X012341Y018185D01*
X012322Y018283D02*
X019651Y018283D01*
X019651Y018382D02*
X012281Y018382D01*
X012190Y018480D02*
X019651Y018480D01*
X019651Y018579D02*
X012002Y018579D01*
X012348Y018874D02*
X010982Y018874D01*
X010884Y018776D02*
X012447Y018776D01*
X012621Y018776D02*
X012681Y018776D01*
X012681Y018874D02*
X012621Y018874D01*
X012621Y018973D02*
X012681Y018973D01*
X012681Y019071D02*
X012621Y019071D01*
X012621Y019170D02*
X011081Y019170D01*
X011081Y019269D02*
X012241Y019269D01*
X012241Y019321D02*
X012241Y019181D01*
X012621Y019181D01*
X012621Y019561D01*
X012481Y019561D01*
X012241Y019321D01*
X012287Y019367D02*
X011043Y019367D01*
X010945Y019466D02*
X012386Y019466D01*
X012621Y019466D02*
X012681Y019466D01*
X012681Y019367D02*
X012621Y019367D01*
X012621Y019269D02*
X012681Y019269D01*
X012681Y019170D02*
X019651Y019170D01*
X019651Y019071D02*
X013061Y019071D01*
X013053Y018973D02*
X019651Y018973D01*
X019651Y018874D02*
X012954Y018874D01*
X012856Y018776D02*
X019651Y018776D01*
X019651Y018677D02*
X010871Y018677D01*
X010871Y018579D02*
X011300Y018579D01*
X011112Y018480D02*
X010791Y018480D01*
X010693Y018382D02*
X011021Y018382D01*
X010980Y018283D02*
X010594Y018283D01*
X010496Y018185D02*
X010961Y018185D01*
X010961Y018086D02*
X010397Y018086D01*
X010299Y017988D02*
X010994Y017988D01*
X011045Y017889D02*
X010406Y017889D01*
X010471Y017790D02*
X011144Y017790D01*
X011234Y017531D02*
X011176Y017502D01*
X011124Y017464D01*
X011078Y017418D01*
X011041Y017366D01*
X011011Y017309D01*
X010991Y017247D01*
X010981Y017183D01*
X010981Y017181D01*
X011621Y017181D01*
X011621Y017121D01*
X011681Y017121D01*
X011681Y016741D01*
X011943Y016741D01*
X012007Y016751D01*
X012069Y016771D01*
X012126Y016801D01*
X012178Y016838D01*
X012224Y016884D01*
X012260Y016934D01*
X012473Y016721D01*
X012829Y016721D01*
X013081Y016973D01*
X013081Y017329D01*
X012829Y017581D01*
X012473Y017581D01*
X012260Y017368D01*
X012224Y017418D01*
X012178Y017464D01*
X012126Y017502D01*
X012069Y017531D01*
X012007Y017551D01*
X011943Y017561D01*
X011681Y017561D01*
X011681Y017181D01*
X011621Y017181D01*
X011621Y017561D01*
X011359Y017561D01*
X011295Y017551D01*
X011234Y017531D01*
X011167Y017495D02*
X010464Y017495D01*
X010389Y017396D02*
X011062Y017396D01*
X011008Y017298D02*
X008316Y017298D01*
X008341Y017199D02*
X010984Y017199D01*
X010981Y017121D02*
X010981Y017119D01*
X010991Y017055D01*
X011011Y016994D01*
X011041Y016936D01*
X011078Y016884D01*
X011124Y016838D01*
X011176Y016801D01*
X011234Y016771D01*
X011295Y016751D01*
X011359Y016741D01*
X011621Y016741D01*
X011621Y017121D01*
X010981Y017121D01*
X010984Y017101D02*
X008341Y017101D01*
X008315Y017002D02*
X011009Y017002D01*
X011064Y016904D02*
X008272Y016904D01*
X008173Y016805D02*
X011170Y016805D01*
X011306Y016581D02*
X011148Y016516D01*
X011027Y016395D01*
X010961Y016237D01*
X010961Y016066D01*
X011027Y015908D01*
X011148Y015787D01*
X011306Y015721D01*
X011997Y015721D01*
X012155Y015787D01*
X012276Y015908D01*
X012341Y016066D01*
X012341Y016237D01*
X012276Y016395D01*
X012155Y016516D01*
X011997Y016581D01*
X011306Y016581D01*
X011141Y016509D02*
X008161Y016509D01*
X008260Y016411D02*
X011043Y016411D01*
X010993Y016312D02*
X008310Y016312D01*
X008341Y016214D02*
X010961Y016214D01*
X010961Y016115D02*
X008341Y016115D01*
X008321Y016017D02*
X010981Y016017D01*
X011022Y015918D02*
X008280Y015918D01*
X008188Y015820D02*
X011115Y015820D01*
X011168Y015524D02*
X008135Y015524D01*
X008245Y015425D02*
X009433Y015425D01*
X009347Y015327D02*
X008304Y015327D01*
X008341Y015228D02*
X009306Y015228D01*
X009303Y015130D02*
X008341Y015130D01*
X008327Y015031D02*
X009324Y015031D01*
X009377Y014933D02*
X008286Y014933D01*
X008298Y014341D02*
X009853Y014341D01*
X009812Y014243D02*
X008339Y014243D01*
X008341Y014144D02*
X009803Y014144D01*
X009818Y014046D02*
X008333Y014046D01*
X008292Y013947D02*
X009862Y013947D01*
X009971Y013849D02*
X008217Y013849D01*
X008067Y013750D02*
X011236Y013750D01*
X011086Y013849D02*
X010331Y013849D01*
X010151Y014151D02*
X011651Y014151D01*
X012151Y013651D01*
X014651Y013651D01*
X014454Y013356D02*
X012292Y013356D01*
X011840Y013652D02*
X003500Y013652D01*
X003500Y013582D02*
X003447Y013454D01*
X003151Y013651D02*
X002651Y014151D01*
X000651Y014151D01*
X000651Y014736D02*
X004459Y014736D01*
X004360Y014834D02*
X000651Y014834D01*
X000651Y014933D02*
X002559Y014933D01*
X002460Y015031D02*
X000651Y015031D01*
X000651Y015130D02*
X002361Y015130D01*
X002263Y015228D02*
X000651Y015228D01*
X000651Y015327D02*
X002024Y015327D01*
X001884Y015425D02*
X000651Y015425D01*
X000651Y015524D02*
X001827Y015524D01*
X001803Y015622D02*
X000651Y015622D01*
X000651Y015721D02*
X001803Y015721D01*
X001844Y015820D02*
X000651Y015820D01*
X000651Y015918D02*
X001925Y015918D01*
X002151Y015651D02*
X002651Y015151D01*
X004651Y015151D01*
X005151Y015151D01*
X005651Y014651D01*
X010651Y014651D01*
X010933Y014440D02*
X011072Y014440D01*
X010982Y014539D02*
X011203Y014539D01*
X011271Y014736D02*
X010993Y014736D01*
X011000Y014637D02*
X019651Y014637D01*
X019651Y016312D02*
X017892Y016312D01*
X017821Y016241D02*
X018061Y016481D01*
X018061Y016621D01*
X017681Y016621D01*
X017681Y016241D01*
X017821Y016241D01*
X017681Y016312D02*
X017621Y016312D01*
X017621Y016241D02*
X017621Y016621D01*
X017681Y016621D01*
X017681Y016681D01*
X018061Y016681D01*
X018061Y016821D01*
X017821Y017061D01*
X017681Y017061D01*
X017681Y016681D01*
X017621Y016681D01*
X017621Y016621D01*
X017241Y016621D01*
X017241Y016481D01*
X017481Y016241D01*
X017621Y016241D01*
X017621Y016411D02*
X017681Y016411D01*
X017681Y016509D02*
X017621Y016509D01*
X017621Y016608D02*
X017681Y016608D01*
X017621Y016681D02*
X017241Y016681D01*
X017241Y016821D01*
X017481Y017061D01*
X017621Y017061D01*
X017621Y016681D01*
X017621Y016706D02*
X017681Y016706D01*
X017681Y016805D02*
X017621Y016805D01*
X017621Y016904D02*
X017681Y016904D01*
X017681Y017002D02*
X017621Y017002D01*
X017422Y017002D02*
X016908Y017002D01*
X017007Y016904D02*
X017324Y016904D01*
X017241Y016805D02*
X017081Y016805D01*
X017081Y016706D02*
X017241Y016706D01*
X017241Y016608D02*
X017081Y016608D01*
X017081Y016509D02*
X017241Y016509D01*
X017312Y016411D02*
X017019Y016411D01*
X016920Y016312D02*
X017410Y016312D01*
X017991Y016411D02*
X019651Y016411D01*
X019651Y016509D02*
X018061Y016509D01*
X018061Y016608D02*
X019651Y016608D01*
X019651Y016706D02*
X018061Y016706D01*
X018061Y016805D02*
X019651Y016805D01*
X019651Y016904D02*
X017979Y016904D01*
X017880Y017002D02*
X019651Y017002D01*
X019651Y019269D02*
X013061Y019269D01*
X013015Y019367D02*
X019651Y019367D01*
X019651Y019466D02*
X012916Y019466D01*
X012916Y017495D02*
X015387Y017495D01*
X015288Y017396D02*
X013014Y017396D01*
X013081Y017298D02*
X015221Y017298D01*
X015221Y017199D02*
X013081Y017199D01*
X013081Y017101D02*
X015221Y017101D01*
X015221Y017002D02*
X013081Y017002D01*
X013012Y016904D02*
X015291Y016904D01*
X015389Y016805D02*
X012913Y016805D01*
X012389Y016805D02*
X012132Y016805D01*
X012238Y016904D02*
X012291Y016904D01*
X012161Y016509D02*
X013901Y016509D01*
X013803Y016411D02*
X012260Y016411D01*
X012310Y016312D02*
X013721Y016312D01*
X013721Y016214D02*
X012341Y016214D01*
X012341Y016115D02*
X013721Y016115D01*
X013721Y016017D02*
X012321Y016017D01*
X012280Y015918D02*
X013776Y015918D01*
X013875Y015820D02*
X012188Y015820D01*
X012135Y015524D02*
X013944Y015524D01*
X013846Y015425D02*
X012245Y015425D01*
X012304Y015327D02*
X013747Y015327D01*
X013741Y015228D02*
X012341Y015228D01*
X012341Y015130D02*
X014121Y015130D01*
X014121Y015228D02*
X014181Y015228D01*
X014181Y015327D02*
X014121Y015327D01*
X014121Y015425D02*
X014181Y015425D01*
X014181Y015524D02*
X014121Y015524D01*
X013741Y015031D02*
X012327Y015031D01*
X012286Y014933D02*
X013790Y014933D01*
X014456Y013947D02*
X013055Y013947D01*
X012430Y014539D02*
X012100Y014539D01*
X012230Y014440D02*
X012332Y014440D01*
X011651Y015151D02*
X009651Y015151D01*
X009870Y015425D02*
X011057Y015425D01*
X011100Y014834D02*
X010953Y014834D01*
X011238Y013553D02*
X008064Y013553D01*
X008216Y013455D02*
X011086Y013455D01*
X011011Y013356D02*
X008757Y013356D01*
X008856Y013257D02*
X010970Y013257D01*
X010961Y013159D02*
X008955Y013159D01*
X009053Y013060D02*
X010963Y013060D01*
X011004Y012962D02*
X009152Y012962D01*
X009250Y012863D02*
X011071Y012863D01*
X011201Y012765D02*
X009349Y012765D01*
X009371Y012469D02*
X011101Y012469D01*
X011017Y012371D02*
X009371Y012371D01*
X009371Y012272D02*
X010976Y012272D01*
X010961Y012173D02*
X009371Y012173D01*
X009371Y012075D02*
X010961Y012075D01*
X010998Y011976D02*
X009287Y011976D01*
X009189Y011878D02*
X011056Y011878D01*
X011165Y011779D02*
X009090Y011779D01*
X007011Y013356D02*
X006939Y013356D01*
X006829Y013455D02*
X007086Y013455D01*
X007236Y013750D02*
X003487Y013750D01*
X003446Y013849D02*
X007086Y013849D01*
X007010Y013947D02*
X003347Y013947D01*
X003068Y014046D02*
X006969Y014046D01*
X006961Y014144D02*
X002969Y014144D01*
X002871Y014243D02*
X005451Y014243D01*
X005353Y014341D02*
X002772Y014341D01*
X002688Y015425D02*
X004317Y015425D01*
X004416Y015524D02*
X002589Y015524D01*
X002459Y015820D02*
X004041Y015820D01*
X003891Y015918D02*
X002377Y015918D01*
X001904Y016411D02*
X003918Y016411D01*
X003841Y016312D02*
X001743Y016312D01*
X001559Y016312D02*
X000651Y016312D01*
X000651Y016214D02*
X003803Y016214D01*
X003803Y016115D02*
X000651Y016115D01*
X000651Y016017D02*
X003830Y016017D01*
X004151Y016151D02*
X007651Y016151D01*
X007115Y015820D02*
X004261Y015820D01*
X004411Y015918D02*
X007022Y015918D01*
X007168Y015524D02*
X004886Y015524D01*
X004985Y015425D02*
X005933Y015425D01*
X005847Y015327D02*
X005287Y015327D01*
X005385Y015228D02*
X005806Y015228D01*
X005803Y015130D02*
X005484Y015130D01*
X005157Y014834D02*
X004942Y014834D01*
X004844Y014736D02*
X005221Y014736D01*
X005221Y014637D02*
X001146Y014637D01*
X001191Y014539D02*
X005221Y014539D01*
X005254Y014440D02*
X001191Y014440D01*
X001399Y016411D02*
X000651Y016411D01*
X000651Y016509D02*
X001333Y016509D01*
X001303Y016608D02*
X000651Y016608D01*
X000651Y016706D02*
X001303Y016706D01*
X001338Y016805D02*
X000651Y016805D01*
X000651Y016904D02*
X001411Y016904D01*
X001651Y016651D02*
X005151Y016651D01*
X004911Y016904D02*
X001892Y016904D01*
X001504Y017988D02*
X000651Y017988D01*
X000651Y018086D02*
X001405Y018086D01*
X001307Y018185D02*
X000651Y018185D01*
X000651Y018283D02*
X001208Y018283D01*
X001110Y018382D02*
X000651Y018382D01*
X000651Y018480D02*
X001011Y018480D01*
X000931Y018579D02*
X000651Y018579D01*
X000651Y018677D02*
X000931Y018677D01*
X000931Y018776D02*
X000651Y018776D01*
X000651Y018874D02*
X000931Y018874D01*
X000931Y018973D02*
X000651Y018973D01*
X000651Y019071D02*
X000931Y019071D01*
X000651Y019170D02*
X000652Y019170D01*
X001151Y019651D02*
X001151Y018651D01*
X001651Y018151D01*
X007651Y018151D01*
X010151Y018151D01*
X010651Y018651D01*
X010651Y019151D01*
X010358Y019466D02*
X009445Y019466D01*
X009346Y019564D02*
X010456Y019564D01*
X010259Y019367D02*
X009543Y019367D01*
X009581Y019329D02*
X009329Y019581D01*
X008973Y019581D01*
X008721Y019329D01*
X008721Y018973D01*
X008973Y018721D01*
X009329Y018721D01*
X009581Y018973D01*
X010221Y018973D01*
X010221Y019071D02*
X009581Y019071D01*
X009581Y018973D02*
X009581Y019329D01*
X009581Y019269D02*
X010221Y019269D01*
X010221Y019170D02*
X009581Y019170D01*
X009482Y018874D02*
X010320Y018874D01*
X010418Y018776D02*
X009384Y018776D01*
X008918Y018776D02*
X007356Y018776D01*
X007321Y018741D02*
X007561Y018981D01*
X007561Y019121D01*
X007181Y019121D01*
X007181Y018741D01*
X007321Y018741D01*
X007181Y018776D02*
X007121Y018776D01*
X007121Y018741D02*
X007121Y019121D01*
X007181Y019121D01*
X007181Y019181D01*
X007561Y019181D01*
X007561Y019321D01*
X007321Y019561D01*
X007181Y019561D01*
X007181Y019181D01*
X007121Y019181D01*
X007121Y019121D01*
X006741Y019121D01*
X006741Y018981D01*
X006981Y018741D01*
X007121Y018741D01*
X007121Y018874D02*
X007181Y018874D01*
X007181Y018973D02*
X007121Y018973D01*
X007121Y019071D02*
X007181Y019071D01*
X007181Y019170D02*
X008721Y019170D01*
X008721Y019071D02*
X007561Y019071D01*
X007553Y018973D02*
X008721Y018973D01*
X008820Y018874D02*
X007454Y018874D01*
X007561Y019269D02*
X008721Y019269D01*
X008759Y019367D02*
X007515Y019367D01*
X007416Y019466D02*
X008858Y019466D01*
X008956Y019564D02*
X005691Y019564D01*
X005659Y019466D02*
X006000Y019466D01*
X005874Y019367D02*
X005618Y019367D01*
X005532Y019269D02*
X005823Y019269D01*
X005803Y019170D02*
X005401Y019170D01*
X005662Y018973D02*
X004640Y018973D01*
X004542Y019071D02*
X005760Y019071D01*
X005563Y018874D02*
X004739Y018874D01*
X004902Y019170D02*
X004443Y019170D01*
X004532Y019269D02*
X004770Y019269D01*
X004684Y019367D02*
X004618Y019367D01*
X004151Y019151D02*
X004151Y019651D01*
X004151Y019151D02*
X004651Y018651D01*
X005651Y018651D01*
X006151Y019151D01*
X006480Y019269D02*
X006741Y019269D01*
X006741Y019321D02*
X006741Y019181D01*
X007121Y019181D01*
X007121Y019561D01*
X006981Y019561D01*
X006741Y019321D01*
X006787Y019367D02*
X006428Y019367D01*
X006302Y019466D02*
X006886Y019466D01*
X007121Y019170D02*
X006500Y019170D01*
X006495Y019071D02*
X006741Y019071D01*
X006750Y018973D02*
X006454Y018973D01*
X006367Y018874D02*
X006848Y018874D01*
X006947Y018776D02*
X006087Y018776D01*
X005988Y018677D02*
X010366Y018677D01*
X010268Y018579D02*
X008002Y018579D01*
X008190Y018480D02*
X010169Y018480D01*
X010071Y018382D02*
X008281Y018382D01*
X008274Y017396D02*
X009913Y017396D01*
X010151Y017651D02*
X005651Y017651D01*
X005281Y017889D02*
X000651Y017889D01*
X000651Y017790D02*
X005221Y017790D01*
X005221Y017692D02*
X000651Y017692D01*
X000651Y017593D02*
X005221Y017593D01*
X005221Y017495D02*
X000651Y017495D01*
X000651Y017396D02*
X005298Y017396D01*
X005397Y017298D02*
X000651Y017298D01*
X000651Y017199D02*
X006961Y017199D01*
X006961Y017101D02*
X000651Y017101D01*
X000651Y017002D02*
X006987Y017002D01*
X007031Y016904D02*
X005392Y016904D01*
X005465Y016805D02*
X007129Y016805D01*
X006986Y017298D02*
X005906Y017298D01*
X006004Y017396D02*
X007028Y017396D01*
X007021Y018382D02*
X001732Y018382D01*
X001633Y018480D02*
X004511Y018480D01*
X004431Y018560D02*
X004431Y018560D01*
X004412Y018579D02*
X001535Y018579D01*
X001436Y018677D02*
X004314Y018677D01*
X004215Y018776D02*
X001371Y018776D01*
X001371Y018874D02*
X004117Y018874D01*
X004018Y018973D02*
X001371Y018973D01*
X001371Y019071D02*
X003931Y019071D01*
X003902Y019170D02*
X003352Y019170D01*
X003201Y019170D02*
X003101Y019170D01*
X003101Y019269D02*
X003201Y019269D01*
X003201Y019367D02*
X003101Y019367D01*
X003101Y019466D02*
X003201Y019466D01*
X003201Y019564D02*
X003101Y019564D01*
X002950Y019170D02*
X002401Y019170D01*
X002532Y019269D02*
X002798Y019269D01*
X002715Y019367D02*
X002618Y019367D01*
X002659Y019466D02*
X002665Y019466D01*
X001902Y019170D02*
X001650Y019170D01*
X001691Y019269D02*
X001770Y019269D01*
X003504Y019269D02*
X003770Y019269D01*
X003684Y019367D02*
X003588Y019367D01*
X003638Y019466D02*
X003644Y019466D01*
X005791Y018480D02*
X007112Y018480D01*
X007300Y018579D02*
X005890Y018579D01*
X007121Y019269D02*
X007181Y019269D01*
X007181Y019367D02*
X007121Y019367D01*
X007121Y019466D02*
X007181Y019466D01*
X010846Y019564D02*
X019651Y019564D01*
X014947Y013454D02*
X014849Y013356D01*
X015543Y011484D02*
X012187Y011484D01*
X012280Y011385D02*
X015392Y011385D01*
X015417Y010892D02*
X012260Y010892D01*
X012275Y009907D02*
X012656Y009907D01*
X012656Y009808D02*
X012176Y009808D01*
X012287Y009316D02*
X014005Y009316D01*
X013906Y009217D02*
X012316Y009217D01*
X012321Y009119D02*
X013808Y009119D01*
X013412Y009020D02*
X012300Y009020D01*
X012251Y008922D02*
X013313Y008922D01*
X013221Y008823D02*
X012157Y008823D01*
X012127Y008527D02*
X013221Y008527D01*
X013265Y008429D02*
X012242Y008429D01*
X011651Y008151D02*
X014151Y008151D01*
X013651Y008651D02*
X014151Y009151D01*
X014651Y009651D02*
X017651Y009651D01*
X017414Y009907D02*
X014888Y009907D01*
X015151Y008151D02*
X014651Y007651D01*
X009651Y007651D01*
X009859Y007936D02*
X011015Y007936D01*
X011651Y007151D02*
X016151Y007151D01*
X015151Y008151D02*
X019151Y008151D01*
X018764Y008527D02*
X017081Y008527D01*
X017081Y008626D02*
X018696Y008626D01*
X018611Y008724D02*
X017081Y008724D01*
X017037Y008429D02*
X018682Y008429D01*
X017551Y009316D02*
X017460Y009316D01*
X017395Y009414D02*
X017381Y009414D01*
X013943Y005867D02*
X013859Y005867D01*
X013651Y006151D02*
X011651Y006151D01*
X012056Y006556D02*
X012313Y006556D01*
X012354Y006458D02*
X012212Y006458D01*
X012316Y006754D02*
X012075Y006754D01*
X012220Y006852D02*
X012359Y006852D01*
X012021Y005571D02*
X016241Y005571D01*
X016017Y005473D02*
X012198Y005473D01*
X012284Y005374D02*
X015881Y005374D01*
X015826Y005275D02*
X012325Y005275D01*
X012341Y005177D02*
X015803Y005177D01*
X015804Y005078D02*
X012341Y005078D01*
X012306Y004980D02*
X015845Y004980D01*
X015928Y004881D02*
X012249Y004881D01*
X011281Y005571D02*
X008871Y005571D01*
X008871Y005473D02*
X011104Y005473D01*
X011018Y005374D02*
X008871Y005374D01*
X008871Y005275D02*
X010977Y005275D01*
X010961Y005177D02*
X008871Y005177D01*
X008871Y005078D02*
X010961Y005078D01*
X010997Y004980D02*
X008871Y004980D01*
X008871Y004881D02*
X011053Y004881D01*
X011157Y004783D02*
X008871Y004783D01*
X008651Y005651D02*
X008651Y003651D01*
X007651Y003651D02*
X007651Y005151D01*
X007157Y004783D02*
X005108Y004783D01*
X005126Y004684D02*
X007431Y004684D01*
X007431Y004586D02*
X005122Y004586D01*
X005097Y004487D02*
X007431Y004487D01*
X007431Y004389D02*
X005047Y004389D01*
X004962Y004290D02*
X007431Y004290D01*
X007431Y003994D02*
X001191Y003994D01*
X001191Y003896D02*
X007431Y003896D01*
X007431Y003797D02*
X001191Y003797D01*
X001179Y003699D02*
X007388Y003699D01*
X007289Y003600D02*
X000966Y003600D01*
X001064Y003502D02*
X007191Y003502D01*
X007092Y003403D02*
X001131Y003403D01*
X000651Y003151D02*
X007151Y003151D01*
X007651Y003651D01*
X007053Y004881D02*
X005067Y004881D01*
X006651Y005651D02*
X007151Y006151D01*
X008151Y006151D02*
X008651Y005651D01*
X009802Y002812D02*
X011501Y002812D01*
X011402Y002713D02*
X009900Y002713D01*
X009999Y002615D02*
X011304Y002615D01*
X011205Y002516D02*
X010097Y002516D01*
X010196Y002418D02*
X011107Y002418D01*
X011008Y002319D02*
X010294Y002319D01*
X010393Y002221D02*
X010909Y002221D01*
X010811Y002122D02*
X010491Y002122D01*
X010590Y002024D02*
X010712Y002024D01*
X010651Y001651D02*
X010651Y001151D01*
X011121Y001137D02*
X011181Y001137D01*
X011181Y001235D02*
X011121Y001235D01*
X011121Y001334D02*
X011181Y001334D01*
X011181Y001432D02*
X011121Y001432D01*
X011121Y001531D02*
X011181Y001531D01*
X011216Y001629D02*
X011086Y001629D01*
X011039Y001728D02*
X011263Y001728D01*
X011362Y001826D02*
X011137Y001826D01*
X011121Y001038D02*
X011181Y001038D01*
X011181Y000940D02*
X011121Y000940D01*
X011121Y000841D02*
X011181Y000841D01*
X011187Y000742D02*
X011115Y000742D01*
X010187Y000742D02*
X010089Y000742D01*
X010101Y000841D02*
X010181Y000841D01*
X010181Y000940D02*
X010101Y000940D01*
X010101Y001038D02*
X010181Y001038D01*
X015291Y003011D02*
X015651Y002651D01*
X017651Y002651D01*
X018151Y003151D01*
X018151Y004651D01*
X018474Y004783D02*
X018709Y004783D01*
X018704Y004684D02*
X018500Y004684D01*
X018500Y004586D02*
X018611Y004586D01*
X018611Y004487D02*
X018460Y004487D01*
X018381Y004389D02*
X018611Y004389D01*
X018611Y004290D02*
X018371Y004290D01*
X018371Y004191D02*
X018611Y004191D01*
X018611Y004093D02*
X018371Y004093D01*
X018371Y003994D02*
X018611Y003994D01*
X018611Y003896D02*
X018371Y003896D01*
X018371Y003797D02*
X018611Y003797D01*
X018623Y003699D02*
X018371Y003699D01*
X018371Y003600D02*
X018837Y003600D01*
X018738Y003502D02*
X018371Y003502D01*
X018371Y003403D02*
X018671Y003403D01*
X018630Y003305D02*
X018371Y003305D01*
X018371Y003206D02*
X018611Y003206D01*
X018611Y003107D02*
X018371Y003107D01*
X018320Y003009D02*
X018626Y003009D01*
X018666Y002910D02*
X018221Y002910D01*
X018123Y002812D02*
X018727Y002812D01*
X018825Y002713D02*
X018024Y002713D01*
X017926Y002615D02*
X018916Y002615D01*
X018781Y002516D02*
X017827Y002516D01*
X017599Y002910D02*
X016352Y002910D01*
X016393Y003009D02*
X017698Y003009D01*
X017796Y003107D02*
X016409Y003107D01*
X016409Y003206D02*
X017895Y003206D01*
X017931Y003502D02*
X016674Y003502D01*
X016662Y003486D02*
X016700Y003538D01*
X016729Y003595D01*
X016749Y003656D01*
X016759Y003719D01*
X016759Y003722D01*
X016380Y003722D01*
X016380Y003780D02*
X016759Y003780D01*
X016759Y003783D01*
X016749Y003847D01*
X016729Y003908D01*
X016700Y003965D01*
X016662Y004017D01*
X016617Y004062D01*
X016565Y004100D01*
X016508Y004129D01*
X016447Y004149D01*
X016383Y004159D01*
X016380Y004159D01*
X016380Y003780D01*
X016380Y003797D02*
X016322Y003797D01*
X016322Y003896D02*
X016380Y003896D01*
X016380Y003994D02*
X016322Y003994D01*
X016322Y004093D02*
X016380Y004093D01*
X016574Y004093D02*
X017931Y004093D01*
X017931Y003994D02*
X016678Y003994D01*
X016733Y003896D02*
X017931Y003896D01*
X017931Y003797D02*
X016756Y003797D01*
X016755Y003699D02*
X017931Y003699D01*
X017931Y003600D02*
X016731Y003600D01*
X016662Y003486D02*
X016617Y003440D01*
X016565Y003403D01*
X016024Y003994D02*
X016012Y003994D01*
X015914Y004093D02*
X016128Y004093D01*
X015291Y003131D02*
X015291Y003011D01*
X016151Y005151D02*
X018651Y005151D01*
X019151Y004651D01*
X019151Y004151D01*
X018610Y004881D02*
X018414Y004881D01*
X012702Y009710D02*
X004600Y009710D01*
X003761Y009611D02*
X001171Y009611D01*
X001191Y009513D02*
X003681Y009513D01*
X003676Y009414D02*
X001191Y009414D01*
X001191Y009316D02*
X003676Y009316D01*
X003702Y009710D02*
X000651Y009710D01*
X000651Y009808D02*
X003656Y009808D01*
X003656Y009907D02*
X000651Y009907D01*
X000651Y010006D02*
X003656Y010006D01*
X003656Y010104D02*
X000651Y010104D01*
X000651Y010203D02*
X003656Y010203D01*
X003656Y010301D02*
X000651Y010301D01*
X000651Y010400D02*
X003656Y010400D01*
X003656Y010498D02*
X000651Y010498D01*
X000651Y010597D02*
X003707Y010597D01*
X004651Y012151D02*
X004151Y012651D01*
X005851Y014243D02*
X006964Y014243D01*
X007005Y014341D02*
X005949Y014341D01*
X006151Y015151D02*
X007651Y015151D01*
X007057Y015425D02*
X006370Y015425D01*
X005917Y010892D02*
X001128Y010892D01*
X001121Y008429D02*
X002936Y008429D01*
X003151Y008151D02*
X000651Y008151D01*
X001003Y007739D02*
X003673Y007739D01*
X003656Y007838D02*
X003304Y007838D01*
X003429Y007936D02*
X003656Y007936D01*
X003656Y008035D02*
X003480Y008035D01*
X002998Y007838D02*
X001101Y007838D01*
X001191Y007049D02*
X003238Y007049D01*
X003140Y006951D02*
X001153Y006951D01*
X001112Y006852D02*
X003041Y006852D01*
X002942Y006754D02*
X001017Y006754D01*
X000864Y006655D02*
X002844Y006655D01*
X002745Y006556D02*
X001009Y006556D01*
X001108Y006458D02*
X002647Y006458D01*
X011621Y008823D02*
X011681Y008823D01*
X011681Y008922D02*
X011621Y008922D01*
X011621Y009020D02*
X011681Y009020D01*
X011681Y009119D02*
X011621Y009119D01*
X011621Y009217D02*
X011681Y009217D01*
X011681Y009316D02*
X011621Y009316D01*
X011621Y009414D02*
X011681Y009414D01*
X011681Y009513D02*
X011621Y009513D01*
X011621Y016805D02*
X011681Y016805D01*
X011681Y016904D02*
X011621Y016904D01*
X011621Y017002D02*
X011681Y017002D01*
X011681Y017101D02*
X011621Y017101D01*
X011621Y017199D02*
X011681Y017199D01*
X011681Y017298D02*
X011621Y017298D01*
X011621Y017396D02*
X011681Y017396D01*
X011681Y017495D02*
X011621Y017495D01*
X012136Y017495D02*
X012387Y017495D01*
X012288Y017396D02*
X012240Y017396D01*
D11*
X011911Y017151D02*
X011391Y017151D01*
X011391Y016151D02*
X011911Y016151D01*
X011911Y015151D02*
X011391Y015151D01*
X011391Y014151D02*
X011911Y014151D01*
X011911Y013151D02*
X011391Y013151D01*
X011391Y012151D02*
X011911Y012151D01*
X011911Y011151D02*
X011391Y011151D01*
X011391Y010151D02*
X011911Y010151D01*
X011911Y009151D02*
X011391Y009151D01*
X011391Y008151D02*
X011911Y008151D01*
X011911Y007151D02*
X011391Y007151D01*
X011391Y006151D02*
X011911Y006151D01*
X011911Y005151D02*
X011391Y005151D01*
X007911Y005151D02*
X007391Y005151D01*
X007391Y006151D02*
X007911Y006151D01*
X007911Y007151D02*
X007391Y007151D01*
X007391Y008151D02*
X007911Y008151D01*
X007911Y009151D02*
X007391Y009151D01*
X007391Y010151D02*
X007911Y010151D01*
X007911Y011151D02*
X007391Y011151D01*
X007391Y012151D02*
X007911Y012151D01*
X007911Y013151D02*
X007391Y013151D01*
X007391Y014151D02*
X007911Y014151D01*
X007911Y015151D02*
X007391Y015151D01*
X007391Y016151D02*
X007911Y016151D01*
X007911Y017151D02*
X007391Y017151D01*
X007391Y018151D02*
X007911Y018151D01*
X011391Y018151D02*
X011911Y018151D01*
D12*
X012651Y017151D03*
X014151Y016151D03*
X014151Y015151D03*
X012651Y014151D03*
X015651Y014151D03*
X016651Y014151D03*
X017651Y014151D03*
X017651Y016651D03*
X016651Y016651D03*
X015651Y017151D03*
X012651Y019151D03*
X010651Y019151D03*
X009151Y019151D03*
X007151Y019151D03*
X005651Y017651D03*
X004651Y015151D03*
X005651Y014651D03*
X004651Y012151D03*
X010651Y003651D03*
X011651Y003651D03*
X016651Y005651D03*
X017651Y005651D03*
X016651Y008651D03*
X013651Y008651D03*
X016651Y011651D03*
X017651Y011651D03*
D13*
X004151Y010151D03*
X004151Y009151D03*
X004151Y008151D03*
D14*
X004651Y005651D03*
X013151Y010151D03*
D15*
X014151Y010151D03*
X004651Y004651D03*
D16*
X009651Y001451D02*
X009651Y000851D01*
X010651Y000851D02*
X010651Y001451D01*
X011651Y001451D02*
X011651Y000851D01*
D17*
X014981Y003751D03*
X015291Y003131D03*
X015981Y003131D03*
X015651Y003751D03*
X016351Y003751D03*
D18*
X017088Y001651D03*
X014214Y001651D03*
D19*
X019151Y004151D03*
X019151Y009151D03*
X001151Y019651D03*
X000651Y014151D03*
X000651Y009151D03*
X000651Y004151D03*
D20*
X000651Y003151D03*
X000651Y002151D03*
X000651Y001151D03*
X000651Y006151D03*
X000651Y007151D03*
X000651Y008151D03*
X000651Y011151D03*
X000651Y012151D03*
X000651Y013151D03*
X002151Y019651D03*
X003151Y019651D03*
X004151Y019651D03*
X005151Y019651D03*
X019151Y008151D03*
X019151Y007151D03*
X019151Y006151D03*
X019151Y003151D03*
X019151Y002151D03*
X019151Y001151D03*
D21*
X018151Y004651D03*
X016151Y005151D03*
X017651Y006651D03*
X017651Y007151D03*
X016151Y007151D03*
X014151Y006151D03*
X013651Y006151D03*
X012651Y006651D03*
X014151Y008151D03*
X014651Y009651D03*
X015651Y011151D03*
X017651Y009651D03*
X017151Y009151D03*
X018151Y012151D03*
X019151Y013151D03*
X014651Y013651D03*
X010651Y014651D03*
X010151Y014151D03*
X009651Y015151D03*
X010151Y017651D03*
X006151Y019151D03*
X005151Y016651D03*
X004151Y016151D03*
X002151Y015651D03*
X001651Y016651D03*
X003151Y013651D03*
X003651Y012151D03*
X003151Y011651D03*
X006151Y011151D03*
X006651Y013151D03*
X006151Y015151D03*
X003151Y008151D03*
X009651Y007651D03*
X013151Y003651D03*
X012651Y002651D03*
D22*
X008151Y006151D02*
X007651Y006151D01*
X007151Y006151D01*
X006151Y011151D02*
X000651Y011151D01*
M02*
