%
M48
M72
T01C0.0197
T02C0.0236
T03C0.0276
T04C0.0315
T05C0.0320
T06C0.0400
T07C0.0433
T08C0.0748
%
T01
X3151Y8151
X1651Y9151
X3151Y11651
X3651Y12151
X3151Y13651
X2151Y15651
X1651Y16651
X4151Y16151
X5151Y16651
X6151Y15151
X6651Y13151
X6151Y11151
X9651Y7651
X12651Y6651
X13651Y6151
X14151Y6151
X14151Y8151
X14651Y9651
X15651Y11151
X17151Y9151
X17651Y9651
X17651Y7151
X16151Y7151
X16151Y5151
X18151Y4651
X19151Y5151
X13151Y3651
X12651Y2651
X18151Y12151
X19151Y13151
X14651Y13651
X12651Y13151
X10651Y14651
X10151Y14151
X9651Y15151
X10151Y17651
X6151Y18651
T02
X17651Y6651
T03
X4651Y4651
X4651Y5651
X13151Y10151
X14151Y10151
T04
X14981Y4251
X15291Y3631
X15981Y3631
X15651Y4251
X16351Y4251
T05
X7651Y5151
X7651Y6151
X7651Y7151
X7651Y8151
X7651Y9151
X7651Y10151
X7651Y11151
X7651Y12151
X7651Y13151
X7651Y14151
X7651Y15151
X7651Y16151
X7651Y17151
X7651Y18151
X5651Y17651
X3151Y17651
X3151Y15651
X3151Y14651
X4651Y15151
X5651Y14651
X3151Y12651
X4651Y12151
X11651Y12151
X11651Y11151
X11651Y10151
X11651Y9151
X11651Y8151
X11651Y7151
X11651Y6151
X11651Y5151
X11651Y3651
X10651Y3651
X13651Y8651
X16651Y8651
X16651Y5651
X17651Y5651
X17651Y11651
X16651Y11651
X16651Y14151
X15651Y14151
X14151Y15151
X14151Y16151
X12651Y17151
X11651Y17151
X11651Y16151
X11651Y15151
X11651Y14151
X11651Y13151
X12651Y14151
X15651Y17151
X16651Y16651
X17651Y16651
X17651Y14151
X11651Y18151
T06
X651Y1151
X651Y2151
X651Y3151
X651Y4151
X651Y6151
X651Y7151
X651Y8151
X651Y9151
X651Y11151
X651Y12151
X651Y13151
X651Y14151
X1151Y19651
X2151Y19651
X3151Y19651
X4151Y19651
X5151Y19651
X19151Y9151
X19151Y8151
X19151Y7151
X19151Y6151
X19151Y4151
X19151Y3151
X19151Y2151
X19151Y1151
X11651Y1151
X10651Y1151
X9651Y1151
T07
X4151Y8151
X4151Y9151
X4151Y10151
T08
X14214Y2151
X17088Y2151
M30
